<svg width="49" height="64" viewBox="0 0 49 64" fill="none" xmlns="http://www.w3.org/2000/svg">
<g clip-path="url(#clip0_31_990)">
<path d="M9.63535 0C9.95163 0 10.2679 0 10.5842 0C13.1745 0.180277 15.3853 1.16864 17.2165 2.96509C16.9951 3.12323 16.8101 3.10741 16.6614 2.91765C16.641 2.89236 16.6147 2.87202 16.5852 2.85859C16.5556 2.84517 16.5238 2.83912 16.4928 2.84103C16.4617 2.84293 16.4326 2.85274 16.4081 2.86949C16.3836 2.88624 16.3647 2.90936 16.3531 2.93662L15.5371 4.88172C13.3484 2.72788 10.8672 1.97989 8.0935 2.63774C5.71827 3.20388 4.06573 4.54014 3.13588 6.64654C2.50965 8.07295 2.28826 9.52466 2.4717 11.0017C2.67095 12.602 3.35885 13.9857 4.5354 15.1528C6.60701 17.2023 8.65964 19.2675 10.6933 21.3486L10.3185 21.5052C10.2592 21.5299 10.2062 21.5748 10.1646 21.6355C10.123 21.6962 10.0943 21.7707 10.0813 21.8515C9.98009 22.4271 9.70335 22.8984 9.25108 23.2653C5.16163 19.3561 2.64091 16.7705 1.68891 15.5086C0.69897 14.1929 0.135999 12.4138 0 10.1714C0 9.97219 0 9.77451 0 9.57842C0.721109 3.88862 3.93289 0.695808 9.63535 0Z" fill="#F49A10"/>
<path d="M42.7162 1.18609C42.4063 2.02106 41.886 2.64729 41.1554 3.06477C39.4032 2.39111 37.6242 2.31204 35.8182 2.82757C36.3433 2.07483 36.4619 1.25726 36.174 0.374846C38.4702 -0.159661 40.6509 0.110755 42.7162 1.18609Z" fill="#EA6254"/>
<path d="M36.1741 0.374756C36.4619 1.25717 36.3433 2.07474 35.8183 2.82748C34.9232 3.08999 34.1231 3.5217 33.4178 4.12263C29.2587 7.6586 25.65 11.6864 22.5916 16.206C20.6117 19.1315 18.9813 22.4761 17.7004 26.2398C16.6852 29.2191 16.274 32.1352 16.4669 34.988C16.5017 34.4092 16.3626 33.9158 16.0495 33.5078C16.0081 33.4535 15.9478 33.4161 15.8792 33.4022C15.8106 33.3883 15.7382 33.3988 15.6747 33.4319C14.6847 33.9317 14.1708 34.7666 14.1328 35.9368C13.9684 33.5584 14.0016 31.898 14.2324 30.9555C14.4032 30.2628 14.4633 29.6524 14.4127 29.1243C14.3653 28.6404 14.087 28.1359 13.5778 27.6109C12.1545 26.1434 10.7123 24.6948 9.2511 23.2652C9.70337 22.8984 9.98012 22.4271 10.0813 21.8515C10.0943 21.7706 10.123 21.6962 10.1646 21.6355C10.2062 21.5748 10.2592 21.5298 10.3185 21.5052L10.6933 21.3486L13.8529 24.3469C14.8207 25.2704 15.5434 25.1123 16.021 23.8725C17.2513 20.6749 18.8991 17.5312 20.9644 14.4411C21.6602 13.3974 22.065 12.6225 22.1789 12.1165C22.258 12.0659 22.326 12.0374 22.3829 12.0311C22.4585 12.0232 22.5294 12.0145 22.5825 12.0066C22.6357 11.9988 22.6675 11.9923 22.6723 11.9884C23.4472 11.3622 23.9943 10.5747 24.3137 9.62583C24.5478 9.54676 24.7518 9.42658 24.9257 9.26528C25.6911 8.54733 27.5129 6.73349 30.391 3.82375C32.0831 2.11586 34.0108 0.966192 36.1741 0.374756Z" fill="#EF803E"/>
<path d="M42.7162 1.18604C44.8226 2.09691 46.3518 3.59922 47.3038 5.69297C47.0223 5.62339 46.8436 5.68664 46.7677 5.88274C46.695 6.06934 46.6523 6.17213 46.6396 6.1911C46.4593 6.47892 46.2759 6.76673 46.0893 7.05454C45.8584 7.4056 45.558 7.47202 45.1879 7.25379C44.3403 5.37511 42.9961 3.97875 41.1554 3.06472C41.886 2.64723 42.4063 2.021 42.7162 1.18604Z" fill="#E62B62"/>
<path d="M17.2165 2.96511C20.4299 6.10256 22.4098 8.0698 23.1562 8.86682C23.5674 9.30328 23.9532 9.5563 24.3138 9.62588C23.9943 10.5747 23.4472 11.3622 22.6723 11.9885C22.6675 11.9924 22.6357 11.9988 22.5826 12.0067C22.5294 12.0145 22.4586 12.0232 22.3829 12.0312C22.326 12.0375 22.258 12.066 22.1789 12.1166C21.9037 11.4113 21.3598 10.6838 20.5469 9.93425C19.9049 9.33965 18.2349 7.65548 15.5371 4.88174L16.3531 2.93664C16.3647 2.90938 16.3837 2.88625 16.4081 2.8695C16.4326 2.85276 16.4618 2.84295 16.4928 2.84104C16.5238 2.83913 16.5557 2.84518 16.5852 2.85861C16.6148 2.87203 16.641 2.89238 16.6615 2.91766C16.8101 3.10743 16.9951 3.12324 17.2165 2.96511Z" fill="#F28E29"/>
<path d="M47.3038 5.69298C49.0117 9.53574 48.5736 13.0844 45.9897 16.3388C44.9713 17.6198 41.2313 21.3455 34.7698 27.516C34.8552 26.9815 34.9738 26.4549 35.1256 25.9362C35.2584 25.4745 35.5288 25.0301 35.9368 24.6031C36.4745 24.0465 36.979 23.4598 37.4502 22.8431C37.5061 22.7709 37.548 22.6952 37.5727 22.6219C37.5974 22.5487 37.6042 22.4798 37.5925 22.4208L37.3601 21.3297C40.2983 18.3124 42.0473 16.5492 42.6071 16.04C45.2891 13.6078 46.1494 10.6791 45.1879 7.25381C45.558 7.47204 45.8584 7.40562 46.0893 7.05455C46.2759 6.76674 46.4593 6.47893 46.6396 6.19112C46.6523 6.17214 46.695 6.06935 46.7677 5.88275C46.8436 5.68666 47.0223 5.6234 47.3038 5.69298Z" fill="#E31067"/>
<path d="M37.3601 21.3297L37.5926 22.4209C37.6042 22.4799 37.5974 22.5487 37.5727 22.622C37.548 22.6952 37.5061 22.7709 37.4502 22.8431C36.979 23.4598 36.4745 24.0465 35.9369 24.6032C35.5289 25.0301 35.2584 25.4745 35.1256 25.9363C34.9738 26.455 34.8552 26.9816 34.7698 27.5161C32.4705 29.8597 30.1553 32.1891 27.8244 34.5042C27.1317 35.1937 26.7569 35.5827 26.7 35.6713C26.3268 36.2722 26.4707 36.8842 27.1317 37.5072C27.7485 38.0923 28.1138 38.4719 28.2276 38.6458L26.923 40.2351C26.8934 40.2718 26.845 40.2946 26.7857 40.2998C26.7263 40.3049 26.6594 40.2922 26.5956 40.2636C26.4976 40.2193 26.4027 40.2399 26.311 40.3253L24.7691 38.7834C24.5351 38.4671 24.4924 38.1619 24.6411 37.8678C24.7549 37.6432 24.8197 37.512 24.8356 37.474C25.0791 36.8573 25.495 36.405 26.0833 36.1172C26.2209 36.0531 26.3303 35.9437 26.3916 35.8088L28.6593 30.6662C28.6773 30.6235 28.7105 30.5879 28.7542 30.5648C28.7978 30.5418 28.8494 30.5324 28.9013 30.5381C29.1638 30.5634 29.167 30.459 28.9108 30.225C28.8929 30.2076 28.879 30.1865 28.8702 30.1632C28.8613 30.1399 28.8576 30.115 28.8595 30.0901C28.8613 30.0652 28.8685 30.0411 28.8806 30.0193C28.8928 29.9975 28.9095 29.9787 28.9298 29.9641C29.2492 29.7332 29.4832 29.4311 29.6319 29.0579L37.3601 21.3297Z" fill="#E62B62"/>
<path d="M29.6319 29.0579C29.4832 29.4311 29.2492 29.7331 28.9298 29.964C28.9096 29.9786 28.8928 29.9974 28.8806 30.0192C28.8685 30.041 28.8613 30.0652 28.8595 30.09C28.8576 30.1149 28.8613 30.1399 28.8702 30.1632C28.879 30.1865 28.8929 30.2075 28.9108 30.2249C29.167 30.459 29.1638 30.5633 28.9013 30.538C28.8494 30.5323 28.7978 30.5417 28.7542 30.5648C28.7105 30.5879 28.6773 30.6234 28.6593 30.6661L26.3916 35.8088C26.3303 35.9436 26.2209 36.053 26.0833 36.1171C25.495 36.405 25.0791 36.8572 24.8356 37.474C24.8198 37.5119 24.7549 37.6432 24.6411 37.8677C24.4924 38.1619 24.5351 38.4671 24.7692 38.7834C24.2346 38.4671 23.776 38.4766 23.3934 38.8118C20.5975 41.2756 18.5954 44.4162 17.3873 48.2337C16.4321 51.2541 16.5207 54.2319 17.6529 57.1669L16.4622 58.5901C16.4011 58.6632 16.338 58.7249 16.2767 58.7715C16.2154 58.818 16.1574 58.8484 16.1063 58.8606L15.6557 58.9649C14.8523 57.5543 14.4174 56.1248 14.351 54.6762C14.1043 49.1667 14.0316 42.9202 14.1328 35.9369C14.1707 34.7666 14.6847 33.9317 15.6746 33.432C15.7381 33.3989 15.8106 33.3883 15.8792 33.4022C15.9477 33.4161 16.008 33.4535 16.0494 33.5079C16.3625 33.9159 16.5017 34.4093 16.4669 34.988L16.5143 41.72C16.5144 41.8 16.5319 41.8771 16.565 41.9442C16.5982 42.0114 16.646 42.0664 16.7041 42.1043C17.0995 42.3699 17.4379 42.2655 17.7194 41.7911C18.5607 40.3774 19.5427 39.068 20.6655 37.863C21.8768 36.5663 24.8656 33.6312 29.6319 29.0579Z" fill="#E9505B"/>
<path d="M28.2277 38.6458C29.4991 39.9804 30.527 41.4827 31.3114 43.1527C30.9761 42.9313 30.7215 42.9756 30.5476 43.2855C30.459 43.4373 30.3625 43.5559 30.2582 43.6413C29.847 43.9608 29.5323 44.3577 29.3141 44.8321C28.4981 43.2065 27.4971 41.7041 26.311 40.3252C26.4028 40.2398 26.4976 40.2192 26.5957 40.2635C26.6594 40.2921 26.7263 40.3048 26.7857 40.2997C26.8451 40.2945 26.8934 40.2718 26.923 40.235L28.2277 38.6458Z" fill="#E31067"/>
<path d="M31.3114 43.1528C32.7504 45.7747 33.6597 48.9043 34.0392 52.5414C34.3239 55.2677 33.8068 57.6019 32.4879 59.5438C30.8338 61.9791 28.5439 63.4071 25.6184 63.8277C25.261 63.7202 25.212 63.5463 25.4713 63.3059C25.6263 62.5025 25.873 61.7277 26.2114 60.9813C29.76 59.8869 31.5391 57.5481 31.5486 53.9647C31.5549 51.0201 30.8101 47.976 29.3141 44.8322C29.5323 44.3578 29.847 43.9609 30.2582 43.6414C30.3625 43.556 30.459 43.4374 30.5476 43.2856C30.7215 42.9757 30.9761 42.9314 31.3114 43.1528Z" fill="#D93D78"/>
<path d="M17.6529 57.1669C19.4842 60.5921 22.337 61.8636 26.2114 60.9812C25.8729 61.7276 25.6262 62.5024 25.4713 63.3058C25.2119 63.5462 25.2609 63.7201 25.6183 63.8276C21.2126 64.3052 17.8917 62.6843 15.6556 58.9649L16.1063 58.8605C16.1574 58.8483 16.2154 58.818 16.2767 58.7714C16.338 58.7249 16.4011 58.6631 16.4621 58.5901L17.6529 57.1669Z" fill="#E0206D"/>
</g>
<defs>
<clipPath id="clip0_31_990">
<rect width="48.3902" height="64" fill="white"/>
</clipPath>
</defs>
</svg>
