<svg width="96" height="42" viewBox="0 0 96 42" fill="none" xmlns="http://www.w3.org/2000/svg">
<g clip-path="url(#clip0_31_921)">
<path d="M15.533 6.82032C15.4952 6.82203 15.4622 6.81302 15.4339 6.79328C15.3841 6.75896 15.3571 6.74115 15.3528 6.73986C15.312 6.72613 15.2704 6.72442 15.2279 6.73471C15.2184 6.73697 15.2092 6.74144 15.201 6.74787C15.1928 6.75429 15.1857 6.76252 15.1803 6.77205C14.9717 7.12732 14.7649 7.48346 14.5598 7.84046C14.5573 7.84432 14.5337 7.87822 14.489 7.94215C14.4324 8.02239 14.4204 8.11164 14.453 8.2099C14.4569 8.22143 14.4586 8.23291 14.4581 8.24318C14.4575 8.25346 14.4546 8.26217 14.4498 8.26847C14.4365 8.28606 14.4167 8.29679 14.3906 8.30065C14.3301 8.08096 14.2528 7.92134 14.1589 7.82179C13.3324 6.94775 12.1518 5.76521 10.617 4.27415C10.614 4.27115 10.478 4.1347 10.2089 3.86481C9.96566 3.62066 9.72945 3.41384 9.50032 3.24435C8.68077 2.6372 7.76769 2.32397 6.76106 2.30467C6.32898 2.29651 5.90354 2.34543 5.48476 2.45141C4.64977 2.66252 3.9287 3.06886 3.32155 3.67043C2.6938 4.29303 2.27116 5.03598 2.05361 5.89929C1.94892 6.31464 1.90258 6.73943 1.91459 7.17367C1.94334 8.20475 2.26686 9.1247 2.88517 9.93352C3.03192 10.1262 3.32434 10.4394 3.76243 10.8732C4.6768 11.7786 5.59053 12.6848 6.50361 13.5919C6.48902 13.606 6.48366 13.6225 6.48752 13.6414C6.49138 13.6599 6.48559 13.6654 6.47014 13.6582C6.41651 13.6324 6.37296 13.5947 6.33949 13.5449C6.31117 13.5033 6.29787 13.4957 6.29959 13.5224C6.30087 13.5391 6.31825 13.576 6.35172 13.6331C6.35934 13.6466 6.36353 13.6614 6.36387 13.6762C6.3642 13.691 6.36068 13.7052 6.35365 13.7174L5.73835 14.7748C5.73206 14.7856 5.72801 14.7973 5.72646 14.8091C5.72491 14.821 5.72589 14.8328 5.72934 14.8437C5.74307 14.8849 5.75508 14.9209 5.76538 14.9518C5.77739 14.9879 5.79692 15.0194 5.82395 15.0464C5.94709 15.17 6.07046 15.2934 6.19403 15.4165C6.23694 15.4594 6.25882 15.4957 6.25968 15.5253C4.93854 14.2029 3.61332 12.8847 2.28403 11.5709C1.1637 10.4639 0.542817 9.08823 0.421387 7.44399C0.421387 7.19169 0.421387 6.9396 0.421387 6.68773C0.629491 4.51572 1.6093 2.87213 3.36081 1.75694C3.72724 1.52352 4.11063 1.33344 4.51096 1.18669C5.80721 0.712131 7.12986 0.6497 8.47889 0.999401C9.57819 1.28431 10.5483 1.84812 11.3893 2.69084C12.7667 4.07119 14.1479 5.44769 15.533 6.82032Z" fill="#F49A11"/>
<path d="M28.8215 2.31762L28.9624 2.49912C28.9649 2.50228 28.9668 2.50582 28.968 2.50954C28.9692 2.51326 28.9698 2.51708 28.9696 2.52079C28.9694 2.5245 28.9685 2.52802 28.967 2.53115C28.9654 2.53428 28.9632 2.53696 28.9605 2.53902C28.8434 2.62698 28.7475 2.74949 28.6728 2.90653C28.5878 3.08417 28.4409 3.33518 28.2319 3.65957C28.2212 3.67587 28.2145 3.69561 28.212 3.71878C28.2 3.82906 28.1403 3.86617 28.033 3.83013C27.2873 3.04877 26.4023 2.57056 25.3781 2.39549C24.2089 2.19554 23.104 2.40923 22.0635 3.03654C22.0467 3.0005 22.0529 2.97347 22.0821 2.95545C22.098 2.94558 22.0976 2.94386 22.0808 2.9503L21.9025 3.02045C21.8875 3.02603 21.8854 3.02303 21.8961 3.01144C21.9364 2.96725 21.9763 2.92284 22.0158 2.87821C22.0549 2.83359 22.0901 2.7851 22.1214 2.73275C22.3908 2.2805 22.6588 1.82718 22.9253 1.37278C22.9875 1.2668 22.9752 1.20973 22.8886 1.20158C22.8796 1.20072 22.8626 1.19192 22.8377 1.17519C22.8253 1.16704 22.8086 1.16532 22.7875 1.17004C23.3398 0.979956 23.9083 0.875045 24.4931 0.855308C26.1288 0.799956 27.5716 1.28739 28.8215 2.31762Z" fill="#EE7945"/>
<path d="M22.7873 1.17008C22.8084 1.16536 22.8251 1.16707 22.8375 1.17523C22.8624 1.19196 22.8794 1.20076 22.8884 1.20161C22.9751 1.20977 22.9873 1.26683 22.9251 1.37282C22.6586 1.82721 22.3906 2.28054 22.1212 2.73279C22.0899 2.78514 22.0547 2.83362 22.0156 2.87825C21.9762 2.92287 21.9362 2.96728 21.8959 3.01148C21.8852 3.02306 21.8873 3.02607 21.9024 3.02049L22.0806 2.95033C22.0974 2.9439 22.0978 2.94561 22.0819 2.95548C22.0527 2.9735 22.0465 3.00054 22.0633 3.03658C21.808 3.20221 21.5183 3.42833 21.1944 3.71496C20.4031 4.41479 19.7381 5.03696 19.1991 5.58146C18.6143 6.17188 17.9278 6.93135 17.1395 7.85988C16.8383 8.21559 16.5678 8.54877 16.3279 8.85943C15.2475 10.2621 14.2694 11.7338 13.3937 13.2747C12.9414 14.0693 12.5514 14.8936 12.2236 15.7475C12.0343 16.2396 11.8432 16.7309 11.6501 17.2214C11.2034 18.3571 10.9479 19.535 10.8835 20.7548C10.8527 21.35 10.8346 21.9453 10.8295 22.5409C10.7926 22.3478 10.7861 22.153 10.8102 21.9565C10.8115 21.9462 10.811 21.9359 10.8089 21.9256C10.7883 21.8123 10.7793 21.8297 10.7819 21.9777C10.7849 22.1245 10.7846 22.2712 10.7812 22.418C10.7804 22.466 10.7707 22.5111 10.7522 22.5531C10.7338 22.5939 10.7136 22.6366 10.6917 22.6812C10.6802 22.7044 10.6731 22.7031 10.6705 22.6773C10.6649 22.6259 10.6475 22.6254 10.6184 22.6761C10.2399 23.3295 9.8619 23.983 9.48431 24.6365C9.46586 24.6691 9.44827 24.6852 9.43153 24.6848C9.42471 24.6846 9.41817 24.6861 9.41293 24.689C9.40768 24.6919 9.40404 24.6961 9.40257 24.7009L9.38777 24.7537C9.37704 24.7931 9.37168 24.8133 9.37168 24.8142C9.36481 25.4947 9.36352 25.9545 9.36782 26.1934C9.3691 26.2561 9.35923 26.3044 9.33821 26.3383C9.32576 26.2838 9.31954 26.198 9.31954 26.0808C9.31954 24.7562 9.31954 23.4315 9.31954 22.1065C9.31954 21.4109 9.39099 20.6379 9.53387 19.7875C9.58622 19.4755 9.59866 19.2498 9.5712 19.1104C9.52529 18.8757 9.4133 18.6689 9.23523 18.4899C8.76925 18.0227 7.77743 17.0345 6.25977 15.5254C6.25891 15.4958 6.23702 15.4596 6.19412 15.4166C6.07054 15.2935 5.94718 15.1701 5.82403 15.0466C5.797 15.0195 5.77748 14.988 5.76546 14.952C5.75517 14.9211 5.74315 14.885 5.72942 14.8438C5.72597 14.8329 5.72499 14.8211 5.72655 14.8093C5.7281 14.7974 5.73215 14.7857 5.73843 14.775L6.35373 13.7175C6.36077 13.7053 6.36429 13.6911 6.36395 13.6763C6.36361 13.6616 6.35942 13.6467 6.3518 13.6332C6.31834 13.5761 6.30096 13.5392 6.29967 13.5225C6.29795 13.4959 6.31126 13.5034 6.33957 13.545C6.37304 13.5948 6.41659 13.6325 6.47023 13.6583C6.48568 13.6656 6.49147 13.66 6.48761 13.6415C6.48375 13.6227 6.48911 13.6061 6.5037 13.592C7.40134 14.4815 8.30648 15.3632 9.21914 16.2373C9.33628 16.3497 9.4532 16.4336 9.56991 16.4889C9.69692 16.549 9.83358 16.5616 9.9799 16.5269C10.2614 16.4604 10.4491 16.2832 10.5431 15.9953C10.592 15.8455 10.6169 15.7694 10.6177 15.7668C11.5046 13.4815 12.7065 11.2865 14.2233 9.18188C14.3997 8.93688 14.4554 8.64317 14.3906 8.30076C14.4168 8.2969 14.4366 8.28617 14.4499 8.26858C14.4547 8.26229 14.4576 8.25357 14.4581 8.2433C14.4587 8.23303 14.457 8.22155 14.4531 8.21001C14.4205 8.11175 14.4325 8.0225 14.4891 7.94227C14.5337 7.87833 14.5573 7.84443 14.5599 7.84057C14.765 7.48358 14.9718 7.12744 15.1804 6.77216C15.1858 6.76264 15.1929 6.75441 15.2011 6.74798C15.2093 6.74156 15.2184 6.73708 15.228 6.73483C15.2705 6.72453 15.3121 6.72625 15.3529 6.73998C15.3571 6.74127 15.3842 6.75907 15.434 6.7934C15.4623 6.81314 15.4953 6.82215 15.5331 6.82043C15.6914 6.89423 15.8407 6.90453 15.981 6.85133C16.0613 6.82129 16.1707 6.73483 16.3093 6.59195C17.4807 5.38494 18.6673 4.19317 19.8691 3.01663C20.1549 2.73687 20.4555 2.47427 20.7709 2.22883C21.3793 1.7547 22.0515 1.40178 22.7873 1.17008Z" fill="#F28B2F"/>
<path d="M28.8214 2.31787C29.8418 3.17775 30.5163 4.23801 30.845 5.49865C30.9509 5.90542 31.0129 6.32914 31.031 6.7698C31.0953 8.31879 30.6639 9.70107 29.7366 10.9167C29.5607 11.1475 29.2713 11.4635 28.8684 11.8647C26.5419 14.1843 24.2101 16.4988 21.8729 18.8081L21.8594 18.7412C21.8559 18.7236 21.8478 18.7216 21.8349 18.7354C21.8147 18.7577 21.8019 18.7585 21.7963 18.738C21.7949 18.732 21.7952 18.7252 21.7972 18.7182C21.7992 18.7111 21.8028 18.704 21.8079 18.6974C21.9542 18.5022 22.0814 18.2954 22.1895 18.077C22.1977 18.0611 22.2112 18.045 22.2301 18.0287C22.2571 18.0051 22.2833 17.9712 22.3086 17.927C23.0938 16.5651 23.879 15.2032 24.6643 13.8413C24.6703 13.8306 24.6784 13.8203 24.6887 13.8104C24.7316 13.7692 24.7291 13.754 24.681 13.7647C24.6647 13.7681 24.6615 13.7632 24.6713 13.7499C24.6954 13.716 24.711 13.6795 24.7183 13.6405C25.7516 12.5987 26.7917 11.5639 27.8386 10.5363C28.7238 9.66825 29.2123 8.64425 29.3041 7.46427C29.411 6.08907 28.9873 4.87777 28.033 3.83038C28.1403 3.86643 28.1999 3.82931 28.2119 3.71904C28.2145 3.69587 28.2211 3.67613 28.2319 3.65982C28.4408 3.33544 28.5878 3.08442 28.6727 2.90678C28.7474 2.74974 28.8433 2.62724 28.9604 2.53928C28.9631 2.53721 28.9653 2.53454 28.9669 2.53141C28.9685 2.52828 28.9694 2.52476 28.9695 2.52105C28.9697 2.51734 28.9692 2.51351 28.9679 2.50979C28.9667 2.50607 28.9648 2.50253 28.9624 2.49937L28.8214 2.31787Z" fill="#EA555A"/>
<path d="M65.3417 5.76178C65.2028 5.7904 65.1868 5.81523 65.2937 5.83627C65.3181 5.84132 65.3207 5.85184 65.3013 5.86783C65.223 5.93433 65.1288 6.0631 65.0185 6.25416C64.628 6.93002 64.2437 7.60967 63.8658 8.2931C63.8599 8.30236 63.7644 8.45849 63.5792 8.76149C63.458 8.95844 63.36 9.16633 63.2851 9.38517C63.2828 9.39211 63.2821 9.39948 63.2829 9.40685C63.2838 9.41421 63.2863 9.42141 63.2901 9.42801C63.294 9.43461 63.2993 9.44048 63.3056 9.44527C63.3119 9.45006 63.3191 9.45366 63.3267 9.45587C63.432 9.48617 63.4122 9.52236 63.2674 9.56444C63.2464 9.57033 63.2186 9.57454 63.1841 9.57707C63.0856 9.58212 63.0684 9.61158 63.1323 9.66544C61.13 10.21 59.6756 11.377 58.7691 13.1664C57.9594 14.763 57.8252 16.4577 58.3664 18.2505C58.2729 18.1293 58.2191 18.1284 58.2048 18.2479C58.2025 18.2666 58.1955 18.2844 58.1844 18.2992C58.1733 18.3141 58.1585 18.3256 58.1416 18.3325C58.1113 18.3443 58.0823 18.3578 58.0545 18.3729C58.0125 18.3956 57.9775 18.4323 57.9497 18.4828C57.3968 19.4869 56.9174 20.329 56.5118 21.009C56.3687 21.2489 56.2559 21.4665 56.1734 21.6617C56.1674 21.6756 56.1558 21.6864 56.1409 21.6923C56.1259 21.6981 56.1087 21.6985 56.0926 21.6933C56.0143 21.6664 55.992 21.7198 56.0257 21.8536C54.7472 19.9018 54.1913 17.7766 54.3579 15.478C54.5178 13.272 55.2749 11.3303 56.6292 9.65282C57.1586 8.99716 57.7595 8.41051 58.432 7.89289C60.3443 6.42418 62.5625 5.70118 65.0867 5.72391C65.1144 5.72475 65.1561 5.73317 65.2117 5.74916C65.2521 5.76178 65.2954 5.76599 65.3417 5.76178Z" fill="#D44A81"/>
<path d="M65.3414 5.76172C67.5441 5.87787 69.514 6.62064 71.2512 7.99004C72.5087 8.98068 73.4766 10.1864 74.155 11.6071C75.436 14.2895 75.5913 17.0001 74.6208 19.7389C73.9694 21.5779 72.8357 23.1375 71.2197 24.4177C69.5077 25.7753 67.5479 26.5101 65.3402 26.622C64.501 26.6641 63.6636 26.6052 62.8278 26.4453C59.9611 25.8948 57.6936 24.3643 56.0254 21.8536C55.9918 21.7198 56.0141 21.6663 56.0924 21.6932C56.1085 21.6984 56.1257 21.6981 56.1406 21.6922C56.1556 21.6864 56.1672 21.6755 56.1732 21.6617C56.2556 21.4664 56.3684 21.2488 56.5115 21.009C56.9172 20.3289 57.3965 19.4868 57.9495 18.4827C57.9773 18.4322 58.0122 18.3956 58.0543 18.3729C58.0821 18.3577 58.1111 18.3442 58.1414 18.3325C58.1583 18.3255 58.173 18.314 58.1841 18.2992C58.1952 18.2843 58.2023 18.2666 58.2045 18.2479C58.2188 18.1284 58.2727 18.1292 58.3661 18.2504C59.1329 20.347 60.496 21.7585 62.4554 22.4848C63.2667 22.7861 64.0903 22.9309 64.9261 22.9191C66.383 22.8981 67.6973 22.4352 68.8689 21.5304C70.2273 20.48 71.0665 19.1329 71.3863 17.4891C71.5488 16.6542 71.5555 15.8176 71.4065 14.9793C71.106 13.2959 70.2602 11.9181 68.8689 10.8458C67.1914 9.5547 65.2792 9.16122 63.1321 9.66538C63.0681 9.61151 63.0854 9.58205 63.1838 9.577C63.2183 9.57448 63.2461 9.57027 63.2672 9.56438C63.4119 9.52229 63.4317 9.4861 63.3265 9.4558C63.3188 9.4536 63.3116 9.44999 63.3053 9.44521C63.299 9.44042 63.2938 9.43455 63.2899 9.42795C63.286 9.42134 63.2835 9.41415 63.2827 9.40678C63.2818 9.39942 63.2825 9.39205 63.2848 9.3851C63.3597 9.16627 63.4578 8.95838 63.579 8.76143C63.7642 8.45843 63.8597 8.3023 63.8656 8.29304C64.2435 7.6096 64.6277 6.92996 65.0182 6.2541C65.1285 6.06304 65.2228 5.93426 65.301 5.86777C65.3204 5.85178 65.3179 5.84126 65.2935 5.83621C65.1866 5.81517 65.2026 5.79034 65.3414 5.76172Z" fill="#CA5F90"/>
<path d="M43.5685 13.2053C43.247 13.5841 42.976 13.994 42.7555 14.435C42.5771 14.7927 42.4096 15.0885 42.253 15.3225C41.9685 15.7484 41.7093 16.1895 41.4753 16.6456C39.691 14.2107 37.9134 11.7707 36.1425 9.32564C35.582 8.55131 35.5647 7.78497 36.0907 7.02663C36.2751 6.7615 36.5242 6.56245 36.8381 6.42946C37.1218 6.3091 37.4252 6.26365 37.7484 6.29311C38.3611 6.35035 38.843 6.64156 39.194 7.16676C39.3556 7.40832 39.4385 7.53205 39.4427 7.53794C40.8264 9.42075 42.2017 11.3099 43.5685 13.2053Z" fill="#E11A6A"/>
<path d="M41.4753 16.6455C41.7093 16.1893 41.9686 15.7483 42.253 15.3224C42.4096 15.0884 42.5771 14.7926 42.7555 14.4349C42.976 13.9938 43.247 13.584 43.5686 13.2052L44.9586 15.1078C44.9655 15.1174 44.9746 15.1253 44.9851 15.1307C44.9957 15.1361 45.0073 15.139 45.0192 15.139C45.031 15.139 45.0427 15.1361 45.0533 15.1307C45.0638 15.1253 45.0729 15.1174 45.0798 15.1078C47.0299 12.4237 48.951 9.76783 50.8431 7.14014C51.3877 6.38432 52.1069 6.12298 53.0007 6.35612C53.2297 6.41588 53.4464 6.53287 53.6509 6.7071C53.8344 6.86365 53.9821 7.05303 54.094 7.27523C54.3188 7.72047 54.3663 8.17202 54.2367 8.62989C54.166 8.87818 53.9501 9.2502 53.589 9.74595C51.3814 12.7835 49.1585 15.8375 46.9205 18.9079C46.8927 18.9457 46.8776 18.9912 46.8776 19.038C46.8776 20.5471 46.8776 22.0465 46.8776 23.5363C46.8776 24.1961 46.8292 24.6464 46.7324 24.8871C46.5481 25.345 46.1958 25.6787 45.6757 25.8883C45.2355 26.0667 44.7961 26.0646 44.3576 25.882C43.5606 25.5495 43.1616 24.9431 43.1608 24.0627C43.1599 22.3819 43.1549 20.7011 43.1456 19.0203C43.1457 18.9801 43.1324 18.9399 43.1078 18.9054L41.4753 16.6455Z" fill="#DA3875"/>
<path d="M82.2906 20.4282C82.2393 20.5014 82.2022 20.4854 82.1795 20.3802C82.161 20.2969 82.1261 20.2266 82.0747 20.1694C82.0708 20.1649 82.0658 20.1617 82.06 20.1601C82.0543 20.1584 82.0481 20.1583 82.042 20.1598C82.0358 20.1613 82.0299 20.1644 82.0249 20.1687C82.0198 20.173 82.0157 20.1784 82.0129 20.1845C81.9918 20.2283 81.9556 20.2548 81.9043 20.2641C81.8824 20.268 81.8624 20.2752 81.8457 20.2853C81.8291 20.2954 81.8163 20.308 81.8083 20.3221L80.0131 23.4948C79.062 22.4915 78.4396 21.3401 78.1458 20.0406C78.0263 19.5146 77.9666 18.6779 77.9666 17.5307C77.9666 14.5664 77.9666 11.6025 77.9666 8.63894C77.9666 8.06408 78.0095 7.66302 78.0953 7.43577C78.2502 7.0242 78.5359 6.70899 78.9526 6.49016C79.4795 6.21409 80.032 6.20357 80.6102 6.45859C81.3063 6.7658 81.6564 7.34192 81.6606 8.18696C81.68 11.5284 81.6901 14.8702 81.6909 18.2125C81.6909 18.6965 81.7313 19.079 81.8121 19.3601C81.9199 19.7355 82.0794 20.0915 82.2906 20.4282Z" fill="#C26C9C"/>
<path d="M80.0132 23.4949L81.8085 20.3222C81.8164 20.3081 81.8292 20.2955 81.8458 20.2854C81.8625 20.2753 81.8825 20.2681 81.9044 20.2641C81.9558 20.2549 81.9919 20.2284 82.013 20.1846C82.0158 20.1785 82.0199 20.1731 82.025 20.1688C82.0301 20.1645 82.0359 20.1614 82.0421 20.1599C82.0482 20.1584 82.0544 20.1585 82.0602 20.1602C82.0659 20.1618 82.0709 20.165 82.0748 20.1695C82.1262 20.2267 82.1611 20.297 82.1796 20.3803C82.2024 20.4855 82.2394 20.5015 82.2907 20.4283C82.7537 21.089 83.3138 21.5931 83.9711 21.9408C85.6343 22.8195 87.3058 22.8329 88.9858 21.9812C89.8982 21.5182 90.5782 20.863 91.026 20.0154C91.2229 19.6426 91.3454 19.2348 91.3934 18.7921C91.406 18.6717 91.4119 18.2509 91.4111 17.5296C91.4085 14.4903 91.4111 11.451 91.4186 8.41177C91.4195 7.9699 91.4746 7.62397 91.584 7.37399C91.8441 6.77978 92.2826 6.43259 92.8995 6.33243C93.4668 6.23985 93.9643 6.34884 94.3918 6.65942C94.7175 6.89593 94.9372 7.21913 95.0509 7.62902C95.1081 7.83607 95.1367 8.21103 95.1367 8.75391C95.1367 11.9321 95.135 15.1098 95.1317 18.2871C95.1291 20.095 94.5581 21.6908 93.4184 23.0745C92.0844 24.6938 90.3851 25.7203 88.3204 26.1537C87.3365 26.3599 86.3463 26.3949 85.3498 26.2585C83.2355 25.9681 81.4566 25.0469 80.0132 23.4949Z" fill="#B57CAD"/>
<path d="M24.7183 13.6404C24.711 13.6794 24.6953 13.7159 24.6713 13.7498C24.6614 13.7631 24.6646 13.768 24.681 13.7646C24.729 13.7539 24.7316 13.7691 24.6887 13.8103C24.6784 13.8202 24.6702 13.8305 24.6642 13.8412C23.879 15.2031 23.0938 16.565 22.3086 17.9269C22.2832 17.9711 22.2571 18.005 22.23 18.0286C22.2112 18.0449 22.1976 18.061 22.1895 18.0769C22.0814 18.2953 21.9541 18.5021 21.8078 18.6973C21.8028 18.704 21.7991 18.7111 21.7971 18.7181C21.7951 18.7251 21.7948 18.7319 21.7962 18.7379C21.8018 18.7585 21.8147 18.7576 21.8349 18.7353C21.8477 18.7216 21.8559 18.7235 21.8593 18.7411L21.8728 18.808C20.4663 20.212 19.0583 21.6144 17.6487 23.0154C17.4222 23.2402 17.2868 23.4125 17.2426 23.5322C17.1581 23.76 17.1948 23.9969 17.3527 24.2428C17.4093 24.3303 17.5912 24.5139 17.8985 24.7937L17.9937 24.9739C18.0025 24.9903 18.018 25.0049 18.0381 25.0158C18.1076 25.0531 18.1179 25.1172 18.069 25.2082C17.7022 25.8904 17.4728 26.3116 17.381 26.4716C17.3766 26.4792 17.3697 26.485 17.3612 26.4881C17.3528 26.4911 17.3434 26.4912 17.3347 26.4884C17.2574 26.463 17.2454 26.4815 17.2986 26.5437C17.3102 26.5574 17.308 26.5643 17.2922 26.5643L17.2709 26.5637C16.9727 26.2131 16.6634 25.8728 16.3428 25.5429C16.0493 25.2408 15.7322 25.1498 15.3916 25.27C15.2461 25.321 15.0811 25.4403 14.8966 25.6278C13.8342 26.7087 12.9569 27.9264 12.2648 29.281C11.8413 30.11 11.5037 30.9729 11.2518 31.8697C11.1222 32.3318 11.0574 32.8641 11.0574 33.4665C11.0574 33.9226 11.0548 34.3785 11.0497 34.8342C11.0428 35.4765 11.175 36.088 11.4462 36.6685C11.4311 36.6938 11.4238 36.7209 11.4243 36.7496C11.4243 36.7735 11.4198 36.7942 11.4114 36.8088C11.1677 37.2293 10.9214 37.6483 10.6725 38.0658C10.6717 38.0675 10.6498 38.1111 10.6069 38.1965C10.5816 38.2475 10.5481 38.2928 10.5065 38.3323C10.5007 38.3376 10.4973 38.3452 10.4968 38.3536C10.4964 38.362 10.4989 38.3706 10.5039 38.378C10.5236 38.4067 10.5105 38.4269 10.4646 38.4385C9.90597 37.5361 9.58137 36.5651 9.49083 35.5255C9.47753 35.3757 9.46423 34.9468 9.45093 34.2389C9.44149 33.7561 9.43441 33.2734 9.42969 32.7907C9.45543 32.7654 9.48397 32.7564 9.51529 32.7637C9.52451 32.7657 9.53395 32.7652 9.54227 32.762C9.55059 32.7589 9.55737 32.7534 9.56163 32.7463C11.1565 29.9942 12.7443 27.238 14.3251 24.4777C14.4787 24.2091 14.6383 23.9439 14.8039 23.6822C14.8451 23.6169 14.8192 23.579 14.7261 23.5682L24.7183 13.6404Z" fill="#EC6851"/>
<path d="M10.8294 22.5408C10.8303 24.0666 10.8324 25.5924 10.8358 27.1182C10.8358 27.2529 10.8631 27.3557 10.9176 27.4265C11.0171 27.5552 11.1482 27.5917 11.3108 27.5359C11.3876 27.5097 11.4561 27.4501 11.5162 27.357C11.8864 26.7859 12.2806 26.2313 12.6985 25.6932C13.0066 25.2963 13.3404 24.9226 13.7 24.572C14.0424 24.2378 14.3843 23.9031 14.7259 23.568C14.819 23.5787 14.845 23.6167 14.8038 23.6819C14.6381 23.9436 14.4785 24.2088 14.3249 24.4774C12.7442 27.2377 11.1564 29.9939 9.56147 32.746C9.55721 32.7531 9.55044 32.7587 9.54212 32.7618C9.5338 32.7649 9.52435 32.7655 9.51513 32.7634C9.48381 32.7561 9.45527 32.7651 9.42953 32.7904C9.3686 30.6399 9.33813 28.4891 9.33813 26.3381C9.35916 26.3042 9.36903 26.256 9.36774 26.1933C9.36345 25.9543 9.36474 25.4946 9.3716 24.814C9.3716 24.8132 9.37697 24.793 9.38769 24.7535L9.4025 24.7008C9.40397 24.696 9.40761 24.6918 9.41285 24.6888C9.41809 24.6859 9.42464 24.6845 9.43146 24.6847C9.44819 24.6851 9.46579 24.669 9.48424 24.6364C9.86183 23.9829 10.2398 23.3294 10.6183 22.6759C10.6475 22.6253 10.6649 22.6257 10.6704 22.6772C10.673 22.703 10.6801 22.7042 10.6917 22.6811C10.7136 22.6365 10.7337 22.5938 10.7522 22.553C10.7706 22.5109 10.7803 22.4659 10.7811 22.4178C10.7846 22.2711 10.7848 22.1243 10.7818 21.9776C10.7792 21.8296 10.7882 21.8122 10.8088 21.9255C10.811 21.9358 10.8114 21.9461 10.8101 21.9564C10.7861 22.1529 10.7925 22.3477 10.8294 22.5408Z" fill="#EE7945"/>
<path d="M44.1795 31.6455C44.9261 30.7525 45.878 30.3607 47.0353 30.4701C48.1682 30.577 49.009 31.0576 49.5577 31.9119C49.9264 32.4859 50.1238 33.137 50.1499 33.865C50.1768 34.6065 49.9988 35.2925 49.6158 35.9229C49.0536 36.847 48.1833 37.3579 47.005 37.4556C45.7989 37.5549 44.8591 37.1551 44.1858 36.2562C44.1092 36.1527 44.0697 36.1665 44.0671 36.2978L44.0494 37.3268C44.0491 37.3465 44.0418 37.3653 44.0293 37.379C44.0167 37.3928 43.9999 37.4003 43.9825 37.4L43.2238 37.3861C43.2069 37.3858 43.1908 37.3778 43.179 37.3639C43.1672 37.3499 43.1606 37.3312 43.1607 37.3116L43.1531 27.7558C43.1531 27.7475 43.1547 27.7393 43.1579 27.7316C43.1611 27.7239 43.1657 27.717 43.1716 27.7111C43.1774 27.7053 43.1844 27.7006 43.192 27.6974C43.1997 27.6943 43.2079 27.6926 43.2162 27.6926L44.0431 27.6989C44.0666 27.6989 44.0891 27.7087 44.1056 27.7259C44.1222 27.7432 44.1315 27.7667 44.1315 27.7911L44.1391 31.6304C44.1391 31.6725 44.1526 31.6775 44.1795 31.6455ZM46.6579 36.6286C47.3359 36.625 47.9847 36.34 48.4615 35.8363C48.9383 35.3326 49.2041 34.6514 49.2004 33.9425C49.1967 33.2337 48.9238 32.5553 48.4417 32.0566C47.9597 31.5579 47.3079 31.2797 46.6299 31.2832C45.9519 31.2868 45.3031 31.5718 44.8263 32.0755C44.3494 32.5792 44.0837 33.2604 44.0874 33.9693C44.0892 34.3203 44.1571 34.6675 44.2873 34.9911C44.4175 35.3147 44.6074 35.6083 44.8461 35.8552C45.0847 36.1022 45.3676 36.2976 45.6785 36.4303C45.9894 36.563 46.3222 36.6303 46.6579 36.6286Z" fill="#D44A81"/>
<path d="M52.4882 29.0512C52.8661 29.0512 53.1725 28.7448 53.1725 28.3669C53.1725 27.989 52.8661 27.6826 52.4882 27.6826C52.1103 27.6826 51.804 27.989 51.804 28.3669C51.804 28.7448 52.1103 29.0512 52.4882 29.0512Z" fill="#CF5589"/>
<path d="M56.393 27.6926H55.5749C55.5303 27.6926 55.4941 27.7288 55.4941 27.7734V37.3331C55.4941 37.3777 55.5303 37.4139 55.5749 37.4139H56.393C56.4377 37.4139 56.4738 37.3777 56.4738 37.3331V27.7734C56.4738 27.7288 56.4377 27.6926 56.393 27.6926Z" fill="#CD598B"/>
<path d="M61.5944 27.9211C61.0128 28.3748 60.43 28.8263 59.8458 29.2758C59.6952 29.3919 59.5378 29.4546 59.3737 29.4639C59.1658 29.4757 58.9583 29.4647 58.7513 29.4311C58.7083 29.4243 58.7029 29.4062 58.7348 29.3768L60.3647 27.8921C60.4168 27.845 60.4879 27.8189 60.5642 27.8188H61.5591C61.6693 27.8188 61.6811 27.8529 61.5944 27.9211Z" fill="#CD598B"/>
<path d="M17.8983 24.7935C19.0594 25.9829 19.9757 27.339 20.6472 28.8618C20.6549 28.9562 20.6332 29.0386 20.5822 29.1089C20.5152 29.2008 20.4809 29.2484 20.4792 29.2518C20.214 29.7242 19.9366 30.1896 19.647 30.6478C19.6418 30.6556 19.6371 30.6549 19.6328 30.6459C19.6268 30.6339 19.6172 30.6354 19.6039 30.6504C19.0671 29.1495 18.2894 27.7872 17.2707 26.5634L17.292 26.5641C17.3079 26.5641 17.31 26.5572 17.2984 26.5435C17.2452 26.4812 17.2572 26.4628 17.3345 26.4881C17.3432 26.491 17.3526 26.4909 17.361 26.4878C17.3695 26.4848 17.3765 26.479 17.3808 26.4714C17.4726 26.3113 17.702 25.8902 18.0688 25.2079C18.1178 25.117 18.1075 25.0528 18.0379 25.0155C18.0178 25.0046 18.0023 24.99 17.9935 24.9737L17.8983 24.7935Z" fill="#E94B5D"/>
<path d="M63.4983 31.5835C64.3543 30.6367 65.4236 30.284 66.7063 30.5256C67.6161 30.6964 68.2423 31.1572 68.5849 31.908C68.7347 32.2379 68.8227 32.7433 68.8488 33.4243C68.8984 34.7246 68.9005 36.0259 68.8551 37.3279C68.8545 37.3463 68.8472 37.3638 68.8347 37.3767C68.8223 37.3896 68.8056 37.397 68.7882 37.3974L68.0281 37.4062C68.0111 37.4064 67.9943 37.4029 67.9785 37.3961C67.9627 37.3892 67.9484 37.3791 67.9363 37.3663C67.9242 37.3535 67.9146 37.3383 67.9081 37.3215C67.9015 37.3048 67.8981 37.2868 67.8981 37.2686C67.8981 35.8925 67.8935 34.5626 67.8842 33.2791C67.8775 32.3987 67.5114 31.8015 66.7858 31.4876C66.4231 31.331 66.0271 31.2776 65.5978 31.3272C65.1947 31.3735 64.8281 31.4989 64.4982 31.7035C63.819 32.1243 63.4793 32.7758 63.4793 33.6578C63.4793 34.8471 63.4793 36.062 63.4793 37.3027C63.4793 37.3321 63.4676 37.3604 63.4468 37.3812C63.426 37.4021 63.3977 37.4138 63.3682 37.4138H62.6158C62.5937 37.4138 62.5725 37.405 62.5569 37.3894C62.5412 37.3737 62.5325 37.3525 62.5325 37.3304V30.5988C62.5325 30.5747 62.5416 30.5515 62.558 30.5345C62.5743 30.5175 62.5965 30.5079 62.6196 30.5079L63.367 30.5028C63.3775 30.5027 63.388 30.5047 63.3978 30.5087C63.4076 30.5128 63.4165 30.5188 63.424 30.5264C63.4315 30.534 63.4375 30.5431 63.4416 30.5532C63.4457 30.5632 63.4478 30.574 63.4478 30.5849L63.4541 31.5671C63.4541 31.6092 63.4688 31.6147 63.4983 31.5835Z" fill="#C56798"/>
<path d="M76.6523 36.0278C76.4983 36.2601 76.2673 36.46 75.9592 36.6274C74.9618 37.167 73.9805 37.2814 73.0151 36.9709C72.2593 36.7284 71.668 36.3009 71.2412 35.6881C70.7867 35.0375 70.6087 34.2767 70.7072 33.4055C70.8351 32.271 71.3561 31.4478 72.2702 30.9361C72.771 30.6558 73.3101 30.4988 73.8875 30.4652C74.4674 30.4315 75.0372 30.53 75.5969 30.7606C76.0657 30.9525 76.4398 31.2416 76.7193 31.6279C76.7925 31.7289 76.8299 31.7159 76.8316 31.5888L76.8493 30.5889C76.8497 30.5692 76.8569 30.5504 76.8695 30.5367C76.882 30.5229 76.8988 30.5154 76.9162 30.5157L77.675 30.5296C77.6919 30.5299 77.7079 30.5379 77.7197 30.5518C77.7315 30.5658 77.7381 30.5845 77.7381 30.604C77.7474 32.6847 77.7474 34.7653 77.7381 36.8459C77.7364 37.43 77.6093 37.9846 77.3568 38.5098C77.1472 38.945 76.8312 39.28 76.4087 39.5148C76.0627 39.7067 75.6992 39.8384 75.3179 39.91C74.9888 39.9714 74.6071 39.9988 74.1728 39.992C73.1468 39.9777 72.1654 39.6692 71.2286 39.0666C71.2074 39.053 71.1889 39.0356 71.1743 39.0153C71.1597 38.995 71.1493 38.9723 71.1437 38.9485C71.138 38.9247 71.1373 38.9004 71.1414 38.8768C71.1456 38.8533 71.1547 38.8311 71.168 38.8116L71.5417 38.2599C71.5464 38.2529 71.5526 38.2469 71.5598 38.2424C71.567 38.2379 71.5752 38.235 71.5837 38.2337C71.5923 38.2324 71.6012 38.2328 71.6098 38.2349C71.6184 38.237 71.6266 38.2408 71.6339 38.246C72.5698 38.9303 73.5975 39.2269 74.7169 39.136C75.9618 39.0342 76.6456 38.3655 76.7685 37.1299C76.8022 36.7941 76.8114 36.4402 76.7963 36.0682C76.7904 35.9066 76.7424 35.8931 76.6523 36.0278ZM76.844 33.8257C76.8486 33.4961 76.7858 33.1688 76.6593 32.8625C76.5327 32.5562 76.3448 32.2769 76.1064 32.0405C75.8679 31.8041 75.5835 31.6152 75.2695 31.4847C74.9554 31.3541 74.6178 31.2845 74.276 31.2797C73.9342 31.275 73.5948 31.3351 73.2772 31.4569C72.9596 31.5786 72.6701 31.7594 72.4251 31.9891C72.1801 32.2187 71.9846 32.4927 71.8495 32.7954C71.7144 33.098 71.6425 33.4234 71.6379 33.753C71.6333 34.0826 71.6961 34.4098 71.8227 34.7161C71.9492 35.0225 72.1371 35.3018 72.3756 35.5382C72.614 35.7746 72.8984 35.9635 73.2124 36.094C73.5265 36.2245 73.8641 36.2942 74.2059 36.299C74.5477 36.3037 74.8871 36.2435 75.2047 36.1218C75.5223 36.0001 75.8118 35.8193 76.0568 35.5896C76.3018 35.3599 76.4974 35.086 76.6324 34.7833C76.7675 34.4807 76.8394 34.1553 76.844 33.8257Z" fill="#BB75A5"/>
<path d="M89.6374 36.6638C89.0878 36.227 88.7217 35.6564 88.539 34.9519C88.3269 34.1371 88.3694 33.3376 88.6665 32.5531C88.882 31.985 89.2123 31.525 89.6576 31.1732C90.0742 30.8424 90.5733 30.6236 91.1549 30.5167C91.7912 30.3989 92.4023 30.4527 92.9881 30.6783C93.6917 30.9485 94.235 31.3992 94.618 32.0304C94.9959 32.6541 95.1524 33.3674 95.0876 34.1704C95.0857 34.1881 95.0776 34.2045 95.0648 34.2164C95.052 34.2283 95.0354 34.2348 95.0182 34.2348L89.4771 34.2562C89.4611 34.2564 89.4454 34.26 89.431 34.2668C89.4165 34.2735 89.4038 34.2833 89.3936 34.2955C89.3833 34.3076 89.3759 34.3218 89.3718 34.337C89.3677 34.3523 89.367 34.3682 89.3697 34.3838C89.6079 35.6782 90.3835 36.4147 91.6965 36.5931C92.598 36.7152 93.3929 36.4458 94.0814 35.7851C94.0887 35.7782 94.097 35.7726 94.1058 35.7685C94.1147 35.7644 94.1239 35.7619 94.1329 35.7612C94.142 35.7605 94.1507 35.7616 94.1585 35.7644C94.1663 35.7672 94.1732 35.7717 94.1786 35.7776L94.6432 36.2927C94.6578 36.309 94.6645 36.3314 94.662 36.3553C94.6594 36.3793 94.6477 36.4029 94.6293 36.4214C94.1967 36.8557 93.7052 37.1524 93.1547 37.3115C92.6295 37.4638 92.0744 37.5068 91.4895 37.4403C90.8094 37.3645 90.1921 37.1057 89.6374 36.6638ZM93.3643 31.8979C92.9216 31.5166 92.4313 31.3133 91.8935 31.2881C91.3759 31.2637 90.8932 31.3946 90.4454 31.6807C89.8411 32.0671 89.485 32.6604 89.3773 33.4609C89.3762 33.4688 89.3769 33.4768 89.3792 33.4845C89.3815 33.4921 89.3854 33.4991 89.3906 33.5051C89.3959 33.5111 89.4024 33.5159 89.4097 33.5192C89.417 33.5224 89.4249 33.5241 89.4329 33.524L94.1092 33.5316C94.1189 33.5316 94.1284 33.5296 94.1373 33.5257C94.1462 33.5218 94.1541 33.516 94.1607 33.5087C94.1672 33.5015 94.1722 33.4929 94.1753 33.4836C94.1784 33.4742 94.1795 33.4644 94.1786 33.4546C94.1197 32.8351 93.8483 32.3162 93.3643 31.8979Z" fill="#AA86BA"/>
<path d="M52.9036 30.5017H52.0552C52.0189 30.5017 51.9895 30.5311 51.9895 30.5674V37.347C51.9895 37.3833 52.0189 37.4126 52.0552 37.4126H52.9036C52.9398 37.4126 52.9692 37.3833 52.9692 37.347V30.5674C52.9692 30.5311 52.9398 30.5017 52.9036 30.5017Z" fill="#CF5589"/>
<path d="M59.9002 30.5017H59.1048C59.063 30.5017 59.0291 30.5356 59.0291 30.5775V37.3394C59.0291 37.3813 59.063 37.4152 59.1048 37.4152H59.9002C59.942 37.4152 59.9759 37.3813 59.9759 37.3394V30.5775C59.9759 30.5356 59.942 30.5017 59.9002 30.5017Z" fill="#CA5F90"/>
<path d="M85.5568 36.3357C84.8388 37.2043 83.908 37.5742 82.7641 37.4455C81.5892 37.3133 80.8279 36.7814 80.4803 35.8497C80.3397 35.4743 80.2694 34.7622 80.2694 33.7135C80.2686 32.6665 80.2715 31.6194 80.2783 30.5724C80.2783 30.5635 80.2799 30.5547 80.2831 30.5465C80.2863 30.5383 80.291 30.5309 80.2969 30.5246C80.3027 30.5184 80.3097 30.5135 80.3173 30.5102C80.325 30.5069 80.3332 30.5053 80.3414 30.5055L81.1305 30.5194C81.1474 30.5197 81.1636 30.5272 81.1757 30.5401C81.1877 30.5531 81.1945 30.5705 81.1948 30.5888C81.2218 31.8008 81.2289 33.0132 81.2163 34.2261C81.2012 35.6948 81.7861 36.4776 82.9712 36.5743C83.6605 36.6307 84.2484 36.4801 84.7349 36.1224C85.2938 35.7108 85.5732 35.0997 85.5732 34.2892C85.5732 33.0478 85.5732 31.8063 85.5732 30.5648C85.5732 30.5481 85.5798 30.532 85.5917 30.5202C85.6035 30.5084 85.6196 30.5017 85.6363 30.5017H86.4368C86.4589 30.5017 86.48 30.5105 86.4957 30.5261C86.5034 30.5339 86.5095 30.543 86.5137 30.5531C86.5179 30.5633 86.5201 30.5741 86.5201 30.585V37.3167C86.5201 37.3408 86.5109 37.3639 86.4946 37.381C86.4782 37.398 86.4561 37.4076 86.433 37.4076L85.6856 37.4126C85.675 37.4128 85.6645 37.4108 85.6547 37.4068C85.645 37.4027 85.636 37.3967 85.6285 37.3891C85.621 37.3814 85.615 37.3723 85.6109 37.3623C85.6069 37.3522 85.6048 37.3415 85.6048 37.3306L85.5985 36.3484C85.5985 36.3063 85.5846 36.3021 85.5568 36.3357Z" fill="#B27FB1"/>
<path d="M20.6474 28.8621C21.3121 30.2677 21.7377 31.7433 21.9244 33.2889C22.0033 33.942 22.0497 34.4732 22.0634 34.8825C22.0797 35.3635 22.0321 35.8926 21.9205 36.4697C21.7544 37.3274 21.4054 38.101 20.8733 38.7906C19.7925 40.1907 18.4018 41.0214 16.7014 41.2827C15.2356 41.5075 13.8424 41.229 12.5217 40.4473L12.512 40.3893C12.5108 40.3824 12.5131 40.3749 12.5186 40.3682C12.524 40.3616 12.5322 40.3563 12.5416 40.3533C12.5674 40.3456 12.5796 40.3254 12.5783 40.2928C12.5775 40.2675 12.5809 40.2473 12.5886 40.2323C12.7633 39.8937 12.8763 39.694 12.9278 39.6331C13.0145 39.5314 13.0763 39.4269 13.1132 39.3196C13.1497 39.2132 13.2022 39.1253 13.2709 39.0557C13.2763 39.0503 13.2797 39.0427 13.2805 39.034C13.2813 39.0252 13.2795 39.0157 13.2754 39.0068C13.2646 38.9841 13.2664 38.9609 13.2805 38.9373C13.8851 39.3295 14.501 39.5548 15.1284 39.6131C16.6829 39.7582 18.0011 39.3063 19.0828 38.2577C19.992 37.3759 20.4264 36.2777 20.3861 34.963C20.3411 33.4856 20.0804 32.0482 19.6041 30.6507C19.6174 30.6357 19.6271 30.6342 19.6331 30.6462C19.6374 30.6552 19.6421 30.6558 19.6472 30.6481C19.9369 30.1899 20.2143 29.7245 20.4794 29.2521C20.4811 29.2487 20.5155 29.201 20.5824 29.1092C20.6335 29.0388 20.6551 28.9565 20.6474 28.8621Z" fill="#E41566"/>
<path d="M11.4461 36.6685C11.7066 37.2713 12.0531 37.8197 12.4856 38.3136C12.5877 38.4303 12.8527 38.6382 13.2804 38.9372C13.2663 38.9608 13.2646 38.984 13.2753 39.0067C13.2794 39.0156 13.2812 39.0251 13.2804 39.0339C13.2796 39.0426 13.2762 39.0503 13.2708 39.0557C13.2021 39.1252 13.1496 39.2131 13.1131 39.3195C13.0762 39.4268 13.0144 39.5313 12.9277 39.633C12.8763 39.6939 12.7632 39.8936 12.5886 40.2322C12.5808 40.2472 12.5774 40.2674 12.5783 40.2927C12.5795 40.3253 12.5673 40.3455 12.5416 40.3532C12.5322 40.3562 12.524 40.3615 12.5185 40.3681C12.5131 40.3748 12.5107 40.3823 12.512 40.3892L12.5216 40.4472C11.6746 39.943 10.9889 39.2734 10.4646 38.4384C10.5105 38.4268 10.5236 38.4067 10.5039 38.3779C10.4988 38.3706 10.4963 38.3619 10.4968 38.3535C10.4973 38.3451 10.5007 38.3376 10.5064 38.3322C10.5481 38.2927 10.5815 38.2475 10.6068 38.1964C10.6497 38.111 10.6716 38.0675 10.6725 38.0658C10.9214 37.6483 11.1676 37.2293 11.4114 36.8088C11.4197 36.7941 11.4242 36.7735 11.4242 36.7496C11.4238 36.7208 11.4311 36.6938 11.4461 36.6685Z" fill="#EA535B"/>
</g>
<defs>
<clipPath id="clip0_31_921">
<rect width="96" height="42" fill="white"/>
</clipPath>
</defs>
</svg>
