<svg width="124" height="57" viewBox="0 0 124 57" fill="none" xmlns="http://www.w3.org/2000/svg">
<path d="M22.3291 14.3473C19.0013 17.787 16.9014 21.8644 16.0294 26.5796C12.6804 23.1868 9.31705 19.8091 5.93935 16.4465C4.44621 14.9609 3.78881 13.2003 3.96714 11.1646C4.08653 9.79842 4.56409 8.61433 5.39983 7.61236C6.17813 6.67839 7.18615 5.99378 8.42388 5.55854C10.1618 4.94798 11.8522 5.07493 13.495 5.93938C14.1478 6.28244 14.973 6.95118 15.9704 7.94559C18.1013 10.0689 20.2209 12.2029 22.3291 14.3473Z" fill="#BA0065"/>
<path d="M22.49 32.8702C22.4099 32.8581 22.3404 32.877 22.2814 32.9268C22.2981 32.8135 22.2618 32.7523 22.1726 32.7432C20.1777 30.6803 18.1519 28.6477 16.095 26.6452C16.0603 26.6362 16.0384 26.6143 16.0293 26.5795C16.9013 21.8643 19.0012 17.7869 22.329 14.3472C24.4735 12.2224 26.612 10.0915 28.7444 7.95456C29.7993 6.89818 30.6448 6.2045 31.2811 5.87354C32.9208 5.02269 34.6784 4.93503 36.5539 5.61057C37.707 6.02617 38.647 6.7138 39.3739 7.67346C40.048 8.56814 40.4817 9.60109 40.6751 10.7723C40.9064 12.1733 40.6993 13.4866 40.054 14.7122C39.714 15.3606 38.8918 16.3368 37.5876 17.6411C32.5913 22.6373 27.5951 27.6336 22.5988 32.6299C22.5021 32.7251 22.4658 32.8052 22.49 32.8702Z" fill="#D3D722"/>
<path d="M54.3673 28.3818C54.3778 28.3928 54.3905 28.4015 54.4045 28.4075C54.4186 28.4134 54.4336 28.4165 54.4489 28.4165C54.4641 28.4165 54.4792 28.4134 54.4932 28.4075C54.5072 28.4015 54.5199 28.3928 54.5305 28.3818C57.0528 25.8293 59.588 23.2835 62.136 20.7446C63.0382 19.8454 63.6049 19.3346 63.8362 19.2122C64.3696 18.9281 64.9477 18.8676 65.5703 19.0308C66.1129 19.1729 66.561 19.4819 66.9146 19.958C67.7126 21.034 67.5622 22.1221 66.4635 23.2223C63.9215 25.7628 61.3705 28.2934 58.8104 30.8142C58.0654 31.5472 57.5462 32.1993 57.253 32.7706C56.9719 33.3207 56.8322 34.034 56.8337 34.9105C56.8397 37.0837 56.8427 39.2577 56.8427 41.4324C56.8427 42.383 56.7513 43.0457 56.5684 43.4205C56.3372 43.8905 55.9775 44.2434 55.4894 44.4792C55.0587 44.6877 54.5879 44.7527 54.0771 44.6741C53.2217 44.5441 52.627 44.1112 52.293 43.3752C52.1147 42.9792 52.0255 42.3097 52.0255 41.3667C52.0255 39.1209 52.0255 36.8744 52.0255 34.6272C52.0271 33.7657 51.7958 32.9769 51.3319 32.2605C51.0961 31.8963 50.5105 31.254 49.575 30.3336C47.3308 28.1242 45.0948 25.9071 42.8672 23.6825C42.2446 23.0614 41.8539 22.5528 41.6952 22.1569C41.4081 21.4405 41.4685 20.7552 41.8766 20.1008C42.2257 19.5386 42.698 19.1789 43.2934 19.0218C43.7271 18.9069 44.1677 18.9137 44.615 19.0422C44.9445 19.1359 45.2958 19.3663 45.6691 19.7336C48.5889 22.5944 51.4883 25.4772 54.3673 28.3818Z" fill="#5C3F7F"/>
<path d="M92.3109 31.823C92.3109 33.5166 91.9773 35.1936 91.3292 36.7582C90.6811 38.3229 89.7311 39.7446 88.5336 40.9421C87.336 42.1397 85.9143 43.0896 84.3497 43.7377C82.785 44.3858 81.108 44.7194 79.4144 44.7194C75.994 44.7194 72.7138 43.3607 70.2952 40.9421C67.8767 38.5236 66.5179 35.2433 66.5179 31.823C66.5179 28.4026 67.8767 25.1224 70.2952 22.7038C72.7138 20.2852 75.994 18.9265 79.4144 18.9265C82.8348 18.9265 86.115 20.2852 88.5336 22.7038C90.9521 25.1224 92.3109 28.4026 92.3109 31.823ZM87.5118 31.8252C87.5118 29.6777 86.6587 27.6181 85.1401 26.0995C83.6216 24.5809 81.562 23.7278 79.4144 23.7278C77.2668 23.7278 75.2072 24.5809 73.6887 26.0995C72.1701 27.6181 71.317 29.6777 71.317 31.8252C71.317 32.8886 71.5264 33.9416 71.9334 34.924C72.3403 35.9064 72.9368 36.7991 73.6887 37.551C75.2072 39.0695 77.2668 39.9226 79.4144 39.9226C80.4778 39.9226 81.5307 39.7132 82.5131 39.3063C83.4956 38.8993 84.3882 38.3029 85.1401 37.551C85.892 36.7991 86.4885 35.9064 86.8954 34.924C87.3024 33.9416 87.5118 32.8886 87.5118 31.8252Z" fill="#5C3F7F"/>
<path d="M95.5367 19.9919C96.2455 19.0096 97.1568 18.693 98.2706 19.0421C98.9129 19.2431 99.3753 19.6322 99.6579 20.2095C99.8287 20.5617 99.9141 21.1201 99.9141 21.8848C99.9141 25.2066 99.9141 28.5284 99.9141 31.8501C99.9141 33.3508 100.349 34.7722 101.22 36.1142C102.787 38.5262 104.963 39.8017 107.749 39.9407C109.329 40.0193 110.865 39.575 112.355 38.6078C114.1 37.4743 115.249 35.9661 115.801 34.083C116.015 33.3486 116.122 32.2264 116.122 30.7167C116.122 27.6186 116.122 24.5205 116.122 21.4223C116.122 20.5322 116.438 19.8642 117.068 19.4184C117.636 19.0164 118.285 18.8743 119.015 18.9922C119.763 19.1131 120.303 19.5151 120.636 20.1982C120.828 20.5911 120.925 21.2062 120.928 22.0435C120.939 24.6126 120.943 27.1826 120.942 29.7532C120.94 31.8826 120.854 33.3879 120.684 34.2689C120.295 36.2683 119.484 38.0713 118.251 39.6778C117.325 40.8853 116.216 41.9016 114.926 42.7268C112.665 44.1761 110.154 44.8388 107.395 44.7148C104.522 44.5864 101.929 43.5519 99.6171 41.6114C97.5452 39.8735 96.1797 37.6731 95.5208 35.0102C95.2775 34.0279 95.1437 32.5899 95.1196 30.6963C95.0848 27.9533 95.0765 25.2104 95.0946 22.4674C95.0946 22.4538 95.0856 22.2112 95.0674 21.7397C95.0417 21.0415 95.1981 20.4589 95.5367 19.9919Z" fill="#5C3F7F"/>
<path d="M16.095 26.6453C18.1519 28.6477 20.1777 30.6804 22.1726 32.7433C22.2618 32.7523 22.298 32.8135 22.2814 32.9269C19.8241 35.3419 18.4088 36.801 18.0355 37.3043C16.9141 38.8201 16.2136 40.5157 15.9341 42.3912C15.9174 42.2522 15.8933 42.1139 15.8615 41.9764C15.8283 41.8222 15.8116 41.6824 15.8116 41.557C15.8116 38.1128 15.8116 34.6694 15.8116 31.2267C15.8116 29.5356 15.9061 28.0084 16.095 26.6453Z" fill="#38A3C5"/>
<path d="M22.49 32.8702C24.1857 34.6022 25.2231 35.6457 25.6025 36.0008C26.9838 37.296 27.914 38.7839 28.393 40.4644C28.6756 41.4588 28.8442 42.5273 28.8986 43.6698C28.9666 45.0828 28.9537 46.1566 28.86 46.8911C28.6923 48.2059 28.1875 49.3529 27.3457 50.3322C26.5448 51.2647 25.545 51.9282 24.3466 52.3226C23.0167 52.7609 21.6951 52.7631 20.3818 52.3294C18.9869 51.8685 17.8806 51.0713 17.063 49.9378C16.2303 48.7847 15.8132 47.4026 15.8117 45.7916C15.8102 44.3605 15.851 43.227 15.9341 42.3913C16.2137 40.5158 16.9142 38.8201 18.0355 37.3043C18.4088 36.8011 19.8241 35.3419 22.2814 32.9269C22.3404 32.877 22.4099 32.8581 22.49 32.8702Z" fill="#DF9F01"/>
<path d="M68.7168 48.9607C69.483 48.4302 70.3392 48.4582 71.2852 49.0446C71.5149 49.1866 71.4923 49.3415 71.2172 49.5093C71.1874 49.5284 71.1526 49.5387 71.117 49.5391C71.0814 49.5395 71.0462 49.53 71.0155 49.5115C70.4926 49.2002 69.9961 49.1027 69.5261 49.2191C69.0697 49.3309 68.7433 49.6 68.5468 50.0261C68.4047 50.3359 68.379 50.6631 68.4697 51.0077C68.5544 51.3205 68.7198 51.582 68.9662 51.7921C69.409 52.1684 69.9447 52.2447 70.5734 52.021C70.6552 51.9919 70.7262 51.9341 70.7769 51.8555C70.8276 51.7768 70.8555 51.6811 70.8568 51.5812L70.8636 50.7629C70.8643 50.7308 70.8773 50.6991 70.9006 50.6726C70.9238 50.6461 70.9561 50.6261 70.9928 50.6155C71.4024 50.4977 71.5595 50.6858 71.4643 51.18C71.4326 51.3417 71.4356 51.5034 71.4734 51.6651C71.5565 52.0278 71.4273 52.2878 71.0857 52.4449C70.5039 52.7124 69.9357 52.7744 69.381 52.6308C68.8249 52.4872 68.3919 52.1782 68.0821 51.7036C67.7723 51.2261 67.699 50.7055 67.8622 50.1417C68.0042 49.6506 68.2891 49.2569 68.7168 48.9607Z" fill="#35A3C8" fill-opacity="0.997"/>
<path d="M99.5265 49.0129C100.327 48.3993 101.205 48.4137 102.158 49.056C102.19 49.0773 102.215 49.1051 102.232 49.1366C102.249 49.1681 102.256 49.2021 102.254 49.2351C102.238 49.3892 102.152 49.4867 101.995 49.5275C101.965 49.5353 101.931 49.535 101.896 49.5268C101.861 49.5186 101.826 49.5025 101.793 49.4799C101.054 48.963 100.367 48.9948 99.7305 49.5751C99.4404 49.838 99.2953 50.1751 99.2953 50.5861C99.2938 50.9367 99.4048 51.2602 99.6285 51.5564C100.076 52.1473 100.698 52.284 101.496 51.9667C101.528 51.9546 101.625 51.8919 101.787 51.7785C101.929 51.6803 102.059 51.7014 102.179 51.842C102.209 51.8787 102.232 51.9218 102.244 51.9681C102.256 52.0145 102.257 52.0629 102.248 52.1099C102.24 52.1569 102.22 52.2014 102.192 52.2401C102.164 52.2789 102.128 52.3109 102.086 52.3339C101.398 52.7132 100.743 52.7979 100.12 52.5878C99.5068 52.3808 99.0731 51.9909 98.8192 51.4181C98.6273 50.9844 98.6107 50.5295 98.7693 50.0534C98.9069 49.6408 99.1593 49.294 99.5265 49.0129Z" fill="#35A3C8" fill-opacity="0.997"/>
<path d="M116.556 50.7178C116.547 50.9891 116.482 51.2559 116.365 51.5028C116.248 51.7497 116.082 51.9719 115.876 52.1568C115.669 52.3417 115.427 52.4856 115.163 52.5803C114.898 52.6751 114.617 52.7187 114.334 52.7089C114.052 52.699 113.774 52.6358 113.517 52.5229C113.26 52.4099 113.028 52.2495 112.835 52.0506C112.642 51.8518 112.492 51.6185 112.393 51.364C112.293 51.1096 112.247 50.839 112.256 50.5676C112.276 50.0197 112.52 49.502 112.937 49.1286C113.354 48.7552 113.908 48.5566 114.479 48.5766C115.049 48.5965 115.588 48.8333 115.978 49.2348C116.367 49.6364 116.576 50.1698 116.556 50.7178ZM115.903 50.645C115.903 50.247 115.744 49.8653 115.463 49.5838C115.182 49.3024 114.8 49.1443 114.402 49.1443C114.004 49.1443 113.622 49.3024 113.341 49.5838C113.059 49.8653 112.901 50.247 112.901 50.645C112.901 51.043 113.059 51.4247 113.341 51.7061C113.622 51.9876 114.004 52.1457 114.402 52.1457C114.8 52.1457 115.182 51.9876 115.463 51.7061C115.744 51.4247 115.903 51.043 115.903 50.645Z" fill="#35A3C8" fill-opacity="0.997"/>
<path d="M55.0248 50.3639C54.9913 50.4064 54.9753 50.4601 54.9799 50.514C54.9846 50.5678 55.0095 50.6179 55.0497 50.6541C55.6285 51.1725 55.7275 51.6636 55.3467 52.1276C55.129 52.3951 54.7837 52.5538 54.3107 52.6037C53.682 52.6701 52.9951 52.6792 52.2501 52.6309C52.1889 52.6263 52.1318 52.599 52.0902 52.5544C52.0486 52.5098 52.0255 52.4513 52.0256 52.3906V48.8655C52.0258 48.8155 52.0442 48.7673 52.0772 48.7301C52.1102 48.6929 52.1556 48.6693 52.2047 48.6638C53.0072 48.5701 53.7258 48.5927 54.3606 48.7318C54.7671 48.8209 55.0474 48.9819 55.2016 49.2146C55.4207 49.5486 55.3618 49.9317 55.0248 50.3639ZM54.1293 49.2033C53.6835 49.093 53.2316 49.0854 52.7737 49.1806C52.7405 49.1878 52.7106 49.2054 52.6892 49.2306C52.6678 49.2557 52.656 49.2869 52.6558 49.3189L52.6581 50.1305C52.6579 50.1835 52.678 50.2348 52.7144 50.2746C52.7508 50.3143 52.801 50.3397 52.8553 50.3458C53.3964 50.4093 53.8535 50.3866 54.2268 50.2778C54.3961 50.2279 54.5223 50.1418 54.6054 50.0194C54.7248 49.8426 54.7323 49.6725 54.628 49.5093C54.5389 49.3657 54.3726 49.2637 54.1293 49.2033ZM54.8189 51.2567C54.819 51.2106 54.81 51.1649 54.7924 51.1222C54.7748 51.0796 54.749 51.0408 54.7164 51.0081C54.6839 50.9754 54.6452 50.9495 54.6026 50.9317C54.56 50.914 54.5143 50.9048 54.4682 50.9048L52.9765 50.9022C52.9304 50.9021 52.8847 50.9111 52.842 50.9287C52.7994 50.9463 52.7606 50.9721 52.7279 51.0047C52.6952 51.0372 52.6693 51.0759 52.6515 51.1185C52.6338 51.1611 52.6246 51.2068 52.6246 51.2529L52.6236 51.7788C52.6236 51.825 52.6326 51.8707 52.6502 51.9133C52.6677 51.956 52.6936 51.9948 52.7261 52.0275C52.7587 52.0602 52.7974 52.0861 52.84 52.1038C52.8826 52.1216 52.9283 52.1307 52.9744 52.1308L54.466 52.1334C54.5592 52.1336 54.6487 52.0967 54.7147 52.031C54.7807 51.9652 54.8178 51.8759 54.818 51.7827L54.8189 51.2567Z" fill="#38A3C5"/>
<path d="M56.8564 48.6206H56.5481C56.4604 48.6206 56.3894 48.6917 56.3894 48.7793V52.488C56.3894 52.5756 56.4604 52.6466 56.5481 52.6466H56.8564C56.944 52.6466 57.0151 52.5756 57.0151 52.488V48.7793C57.0151 48.6917 56.944 48.6206 56.8564 48.6206Z" fill="#38A3C5"/>
<path d="M58.9556 52.0709L60.7963 52.0936C60.8328 52.0942 60.8679 52.1049 60.8968 52.1244C60.9256 52.1439 60.9467 52.1712 60.9572 52.2024C60.995 52.3127 60.9943 52.4231 60.955 52.5334C60.9444 52.5644 60.9232 52.5914 60.8943 52.6105C60.8655 52.6296 60.8304 52.6399 60.794 52.6399L58.3594 52.6127C58.3289 52.6127 58.2996 52.6001 58.2776 52.5777C58.2556 52.5553 58.2427 52.5248 58.2415 52.4926C58.1977 51.4302 58.1841 50.3677 58.2007 49.3053C58.2007 49.2902 58.1931 49.1784 58.178 48.9698C58.1538 48.654 58.3254 48.5376 58.6926 48.6207C58.7305 48.629 58.7644 48.6501 58.7887 48.6806C58.813 48.7111 58.8263 48.7492 58.8264 48.7885L58.84 51.9576C58.84 51.9873 58.8521 52.0158 58.8737 52.0369C58.8953 52.0581 58.9247 52.0703 58.9556 52.0709Z" fill="#35A3C8" fill-opacity="0.997"/>
<path d="M62.1382 48.623H61.8073C61.7259 48.623 61.6599 48.689 61.6599 48.7704V52.5017C61.6599 52.5831 61.7259 52.6491 61.8073 52.6491H62.1382C62.2196 52.6491 62.2856 52.5831 62.2856 52.5017V48.7704C62.2856 48.689 62.2196 48.623 62.1382 48.623Z" fill="#35A3C8" fill-opacity="0.997"/>
<path d="M64.1059 50.1825L64.0991 52.4335C64.0985 52.4844 64.0811 52.5334 64.0498 52.5725C64.0184 52.6116 63.9751 52.6386 63.9268 52.6489C63.5883 52.7229 63.4304 52.6164 63.4531 52.3292C63.4667 52.16 63.4735 52.0716 63.4735 52.064C63.4674 50.9789 63.4712 49.8938 63.4848 48.8087C63.4856 48.7726 63.4964 48.7378 63.5158 48.7091C63.5353 48.6803 63.5624 48.659 63.5936 48.6478C63.8037 48.5752 63.9903 48.6432 64.1535 48.8518C64.817 49.6981 65.4812 50.521 66.1462 51.3205C66.2535 51.4489 66.3071 51.4293 66.3071 51.2615V48.7793C66.3072 48.7459 66.3185 48.7136 66.3391 48.6876C66.3597 48.6617 66.3884 48.6436 66.4204 48.6364C66.7983 48.5548 66.9743 48.6629 66.9486 48.9606C66.9365 49.1042 66.9305 49.1828 66.9305 49.1964C66.9305 50.215 66.9343 51.2336 66.9418 52.2522C66.9433 52.5756 66.8232 52.7093 66.5814 52.6534C66.4665 52.6277 66.3517 52.5484 66.2368 52.4154C65.596 51.6764 64.9711 50.9041 64.3621 50.0986C64.1928 49.8749 64.1074 49.9029 64.1059 50.1825Z" fill="#35A3C8" fill-opacity="0.997"/>
<path d="M75.1707 52.445C74.678 52.7654 74.1 52.7972 73.4365 52.5402C73.0103 52.374 72.7308 52.0702 72.5978 51.6289C72.4209 51.0456 72.3937 50.0958 72.5162 48.7794C72.5196 48.7448 72.5329 48.7122 72.5544 48.6859C72.5758 48.6596 72.6044 48.6408 72.6363 48.6321C73.0005 48.5278 73.1652 48.6638 73.1305 49.0401C73.1124 49.2321 73.1033 49.3348 73.1033 49.3484C73.0867 50.0149 73.1071 50.6821 73.1645 51.3501C73.2053 51.8247 73.463 52.0838 73.9375 52.1277C74.8911 52.2153 75.3498 51.7657 75.3135 50.7788C75.2893 50.1169 75.306 49.4557 75.3634 48.7953C75.3667 48.7606 75.3799 48.7279 75.4013 48.7012C75.4227 48.6745 75.4514 48.6552 75.4835 48.6457C75.8417 48.5475 76.008 48.6797 75.9823 49.0424C75.9656 49.3069 75.9603 49.4829 75.9664 49.5706C76.0087 50.1645 75.9694 50.7479 75.8485 51.3206C75.7382 51.8481 75.5123 52.2229 75.1707 52.445Z" fill="#35A3C8" fill-opacity="0.997"/>
<path d="M79.2262 51.69C78.9391 51.681 78.5756 51.6787 78.1358 51.6832C77.7882 51.6862 77.6107 51.6885 77.6031 51.69C77.4354 51.7474 77.322 51.922 77.2631 52.2137C77.2132 52.4661 77.0643 52.6232 76.8165 52.6852C76.4765 52.7713 76.379 52.6512 76.5241 52.3248C77.0515 51.1475 77.5827 49.9725 78.1177 48.7997C78.1342 48.7639 78.1559 48.7322 78.1816 48.7065C78.2073 48.6808 78.2365 48.6616 78.2673 48.6501C78.4169 48.5942 78.5658 48.5942 78.7139 48.6501C78.7461 48.6615 78.7762 48.6805 78.8023 48.7059C78.8284 48.7312 78.85 48.7624 78.8658 48.7974L80.5456 52.5016C80.5512 52.5147 80.554 52.529 80.5535 52.5433C80.5531 52.5576 80.5495 52.5716 80.543 52.5844C80.5365 52.5972 80.5273 52.6084 80.5159 52.6172C80.5046 52.626 80.4915 52.6322 80.4776 52.6353C80.1224 52.7169 79.895 52.5545 79.7952 52.1479C79.7212 51.8517 79.5315 51.6991 79.2262 51.69ZM78.3852 49.5841L77.7595 51.0507C77.7534 51.0643 77.7509 51.0791 77.752 51.0939C77.7532 51.1088 77.7581 51.123 77.7662 51.1354C77.7743 51.1479 77.7854 51.158 77.7985 51.165C77.8116 51.172 77.8263 51.1756 77.8411 51.1754L79.1559 51.1641C79.1696 51.1643 79.183 51.1611 79.1952 51.1549C79.2073 51.1487 79.2176 51.1397 79.2253 51.1287C79.233 51.1176 79.2377 51.1049 79.239 51.0917C79.2404 51.0785 79.2383 51.0652 79.233 51.053L78.5938 49.5795C78.5242 49.4193 78.4547 49.4208 78.3852 49.5841Z" fill="#35A3C8" fill-opacity="0.997"/>
<path d="M83.9527 52.2207C84.0978 52.4625 84.0147 52.5902 83.7034 52.6038C82.9492 52.634 82.1679 52.6491 81.3594 52.6491C81.3203 52.6491 81.2828 52.6338 81.2552 52.6066C81.2276 52.5794 81.212 52.5425 81.212 52.504L81.2256 48.8089C81.2257 48.7728 81.2354 48.7379 81.2536 48.7088C81.2718 48.6797 81.2976 48.6577 81.3277 48.6457C81.4576 48.5959 81.5883 48.5966 81.7198 48.648C81.7491 48.6586 81.7744 48.6798 81.7923 48.7086C81.8102 48.7374 81.8197 48.7725 81.8196 48.8089L81.874 51.926C81.8745 51.9567 81.8868 51.986 81.9083 52.0079C81.9298 52.0298 81.9589 52.0427 81.9896 52.0438L83.7759 52.1209C83.8133 52.1224 83.8492 52.1323 83.8801 52.1497C83.9111 52.1672 83.936 52.1916 83.9527 52.2207Z" fill="#35A3C8" fill-opacity="0.997"/>
<path d="M86.8363 52.0686L88.8493 52.0958C88.8861 52.0957 88.9215 52.1054 88.951 52.1236C88.9805 52.1418 89.0028 52.1676 89.0148 52.1978C89.0602 52.3096 89.0602 52.4222 89.0148 52.5356C89.0021 52.5664 88.9796 52.5927 88.9501 52.6113C88.9207 52.6299 88.8856 52.6398 88.8493 52.6398L86.2401 52.6126C86.2095 52.6126 86.1801 52.6 86.1584 52.5774C86.1367 52.5549 86.1245 52.5244 86.1245 52.4925L86.0973 48.7521C86.097 48.737 86.0998 48.722 86.1055 48.708C86.1111 48.694 86.1196 48.6813 86.1304 48.6705C86.1411 48.6597 86.154 48.6512 86.1682 48.6453C86.1823 48.6395 86.1976 48.6365 86.2129 48.6365H88.736C88.7727 48.6366 88.8082 48.6466 88.8377 48.6652C88.8672 48.6838 88.8894 48.7101 88.9015 48.7408C88.9468 48.8526 88.9468 48.9652 88.9015 49.0785C88.8894 49.108 88.8672 49.1332 88.8378 49.151C88.8083 49.1687 88.7728 49.1782 88.736 49.1783L86.8363 49.2055C86.8051 49.2055 86.7751 49.2174 86.753 49.2387C86.7309 49.2599 86.7185 49.2888 86.7185 49.3188L86.7116 50.1802C86.7113 50.1995 86.7151 50.2186 86.7227 50.2364C86.7303 50.2543 86.7416 50.2705 86.756 50.2843C86.7703 50.298 86.7874 50.3089 86.8063 50.3163C86.8251 50.3237 86.8454 50.3276 86.8658 50.3276L88.5093 50.3367C88.5441 50.3366 88.5781 50.3467 88.6067 50.3657C88.6354 50.3847 88.6575 50.4117 88.6703 50.4432C88.8108 50.7923 88.6665 50.9548 88.2373 50.9306C87.7854 50.9049 87.326 50.892 86.859 50.892C86.8398 50.8921 86.8207 50.8958 86.8029 50.903C86.7852 50.9102 86.7691 50.9207 86.7556 50.934C86.7421 50.9473 86.7315 50.9631 86.7243 50.9804C86.7171 50.9977 86.7136 51.0162 86.7139 51.0349L86.7185 51.9552C86.7185 51.9853 86.7309 52.0141 86.753 52.0354C86.7751 52.0566 86.8051 52.0686 86.8363 52.0686Z" fill="#31A4CF" fill-opacity="0.996"/>
<path d="M93.4103 51.8692C93.1474 52.2531 92.7446 52.4828 92.2021 52.5583C91.584 52.643 90.8956 52.6709 90.1369 52.6422C90.0838 52.6399 90.0336 52.6171 89.9969 52.5787C89.9601 52.5402 89.9396 52.4891 89.9397 52.4359V48.7431C89.9397 48.7276 89.9427 48.7123 89.9487 48.698C89.9546 48.6837 89.9633 48.6707 89.9742 48.6598C89.9852 48.6488 89.9982 48.6401 90.0125 48.6342C90.0268 48.6283 90.0421 48.6252 90.0576 48.6252C90.6213 48.6252 91.1487 48.6298 91.6399 48.6388C92.0389 48.6464 92.4091 48.7325 92.7507 48.8973C93.0922 49.062 93.3612 49.3106 93.5577 49.6431C93.9824 50.3655 93.9332 51.1075 93.4103 51.8692ZM93.1134 50.967C93.3386 50.0814 92.9562 49.4942 91.9663 49.2056C91.7517 49.1436 91.3361 49.1489 90.7195 49.2214C90.6864 49.2253 90.6559 49.2404 90.6338 49.2638C90.6116 49.2872 90.5994 49.3173 90.5994 49.3484L90.5676 51.8896C90.5673 51.9148 90.5723 51.9398 90.5822 51.9631C90.592 51.9865 90.6067 52.0078 90.6252 52.0257C90.6438 52.0436 90.6659 52.0578 90.6903 52.0675C90.7146 52.0773 90.7407 52.0823 90.7671 52.0823C91.0845 52.0823 91.3943 52.0845 91.6966 52.0891C92.0759 52.0951 92.3933 51.9908 92.6487 51.7762C92.8678 51.5919 93.0227 51.3221 93.1134 50.967Z" fill="#31A4CF" fill-opacity="0.996"/>
<path d="M97.5474 52.1548C97.0245 52.7064 96.3588 52.8522 95.5503 52.5923C94.8989 52.3837 94.5657 51.8737 94.5506 51.0621C94.537 50.3443 94.5302 49.5833 94.5302 48.7793C94.5303 48.746 94.5416 48.7137 94.5621 48.6877C94.5827 48.6618 94.6114 48.6437 94.6435 48.6365C95.0213 48.5549 95.1974 48.663 95.1717 48.9607C95.1596 49.1043 95.1536 49.1821 95.1536 49.1942C95.1536 49.6279 95.1536 50.0616 95.1536 50.4954C95.1536 50.8762 95.1989 51.2004 95.2896 51.4679C95.3969 51.7837 95.6168 51.9923 95.9492 52.0936C96.3966 52.2281 96.7615 52.1253 97.0442 51.7853C97.218 51.5752 97.3162 51.2563 97.3389 50.8286C97.3736 50.1697 97.3827 49.51 97.3661 48.8496C97.3654 48.8113 97.3729 48.7744 97.388 48.7423C97.4031 48.7101 97.4252 48.6839 97.4522 48.666C97.5807 48.5814 97.7076 48.5851 97.833 48.6773C97.8591 48.6971 97.8804 48.7244 97.8954 48.757C97.9103 48.7896 97.9184 48.8267 97.9192 48.8655L97.9282 51.2163C97.9298 51.5744 97.8028 51.8873 97.5474 52.1548Z" fill="#35A3C8" fill-opacity="0.997"/>
<path d="M104.677 48.623C104.783 48.5898 104.889 48.5996 104.997 48.6525C105.075 48.6918 105.14 48.7673 105.191 48.8792C105.669 49.9144 106.142 50.9511 106.611 51.9894C106.615 51.9984 106.66 52.0876 106.744 52.2569C106.944 52.6513 106.805 52.7707 106.327 52.615C106.295 52.605 106.265 52.5872 106.239 52.563C106.213 52.5388 106.191 52.5086 106.175 52.4745L105.874 51.8284C105.859 51.7965 105.836 51.7694 105.806 51.7501C105.777 51.7309 105.743 51.7203 105.708 51.7196L104.076 51.6833C103.788 51.6773 103.596 51.8269 103.5 52.1322C103.372 52.5463 103.137 52.7133 102.795 52.6332C102.78 52.6298 102.767 52.6231 102.754 52.6137C102.742 52.6043 102.733 52.5924 102.726 52.5787C102.719 52.5651 102.715 52.5501 102.714 52.5349C102.714 52.5196 102.717 52.5044 102.723 52.4904C103.246 51.2738 103.803 50.0821 104.394 48.9154C104.475 48.7537 104.57 48.6563 104.677 48.623ZM104.7 49.557L104.085 51.0101C104.08 51.0241 104.077 51.0393 104.079 51.0542C104.08 51.0692 104.085 51.0836 104.093 51.0961C104.1 51.1086 104.111 51.1189 104.124 51.126C104.136 51.1331 104.15 51.1369 104.165 51.137L105.427 51.1483C105.441 51.1485 105.454 51.145 105.466 51.1382C105.478 51.1314 105.488 51.1215 105.495 51.1093C105.502 51.0972 105.506 51.0832 105.507 51.0686C105.508 51.0541 105.505 51.0394 105.5 51.0259L104.881 49.5592C104.82 49.4157 104.76 49.4149 104.7 49.557Z" fill="#35A3C8" fill-opacity="0.997"/>
<path d="M108.71 49.3777C108.696 50.277 108.692 51.1762 108.698 52.0754C108.698 52.0844 108.704 52.1638 108.717 52.3134C108.742 52.6111 108.566 52.7192 108.188 52.6376C108.156 52.6304 108.128 52.6123 108.107 52.5864C108.086 52.5604 108.075 52.5281 108.075 52.4947V49.4276C108.075 49.3651 108.05 49.3051 108.006 49.2609C107.962 49.2167 107.902 49.1919 107.839 49.1919C107.543 49.1919 107.321 49.2032 107.173 49.2259C106.783 49.2878 106.626 49.1435 106.704 48.7929C106.714 48.7453 106.74 48.7027 106.778 48.6722C106.816 48.6417 106.863 48.6251 106.912 48.6251C107.813 48.6251 108.67 48.6251 109.485 48.6251C109.505 48.6251 109.583 48.6206 109.721 48.6115C110.052 48.5919 110.155 48.746 110.031 49.074C110.021 49.101 110.001 49.1248 109.973 49.1425C109.945 49.1602 109.911 49.1711 109.875 49.1737L108.825 49.244C108.795 49.2458 108.766 49.2605 108.744 49.2853C108.723 49.3101 108.711 49.3431 108.71 49.3777Z" fill="#35A3C8" fill-opacity="0.997"/>
<path d="M111.276 48.6252H110.94C110.86 48.6252 110.795 48.6902 110.795 48.7703V52.5017C110.795 52.5818 110.86 52.6467 110.94 52.6467H111.276C111.356 52.6467 111.421 52.5818 111.421 52.5017V48.7703C111.421 48.6902 111.356 48.6252 111.276 48.6252Z" fill="#31A4CF" fill-opacity="0.996"/>
<path d="M118.063 50.0488L118.036 52.4653C118.036 52.5017 118.026 52.5368 118.008 52.5662C117.99 52.5956 117.964 52.6181 117.934 52.6308C117.789 52.6897 117.653 52.6769 117.526 52.5922C117.499 52.5741 117.476 52.5476 117.461 52.5151C117.445 52.4827 117.437 52.4453 117.437 52.4064V48.8677C117.437 48.8271 117.445 48.7883 117.46 48.7548C117.474 48.7213 117.495 48.6939 117.521 48.675C117.616 48.6055 117.723 48.5904 117.841 48.6297C117.916 48.6539 117.994 48.7158 118.074 48.8156C118.762 49.674 119.428 50.4946 120.071 51.2774C120.197 51.4316 120.26 51.4097 120.26 51.2117V48.7793C120.26 48.7459 120.271 48.7136 120.292 48.6877C120.312 48.6617 120.341 48.6437 120.373 48.6365C120.751 48.5549 120.927 48.6629 120.901 48.9606C120.889 49.1042 120.883 49.1828 120.883 49.1964C120.883 50.215 120.887 51.2336 120.894 52.2522C120.896 52.5756 120.776 52.7094 120.534 52.6534C120.419 52.6278 120.304 52.5484 120.189 52.4154C119.538 51.6583 118.915 50.8785 118.319 50.076C118.297 50.0454 118.27 50.0205 118.243 50.0041C118.215 49.9877 118.187 49.9804 118.163 49.983L118.113 49.9876C118.099 49.9887 118.086 49.9957 118.077 50.007C118.068 50.0184 118.063 50.0333 118.063 50.0488Z" fill="#38A3C5"/>
</svg>
