<svg width="124" height="51" viewBox="0 0 124 51" fill="none" xmlns="http://www.w3.org/2000/svg">
<g clip-path="url(#clip0_42_1031)">
<path d="M19.5473 9.66339C16.0263 13.3026 13.8046 17.6167 12.882 22.6054C9.33865 19.0158 5.78014 15.4421 2.20645 11.8844C0.626668 10.3126 -0.0688833 8.44978 0.119795 6.29597C0.246113 4.8505 0.751387 3.59771 1.63562 2.53759C2.45909 1.54943 3.5256 0.825096 4.83515 0.364593C6.67397 -0.28139 8.46241 -0.147077 10.2005 0.767533C10.8912 1.1305 11.7643 1.83804 12.8196 2.89016C15.0741 5.13671 17.3167 7.39446 19.5473 9.66339Z" fill="#BA0065"/>
<path d="M19.7177 29.2611C19.6329 29.2483 19.5594 29.2683 19.497 29.321C19.5146 29.2011 19.4762 29.1364 19.3819 29.1268C17.2712 26.9442 15.1278 24.7936 12.9516 22.6749C12.9149 22.6653 12.8917 22.6421 12.8821 22.6054C13.8047 17.6166 16.0265 13.3026 19.5474 9.66331C21.8163 7.41516 24.0789 5.16062 26.335 2.89968C27.4511 1.782 28.3457 1.04807 29.0189 0.697898C30.7538 -0.202321 32.6133 -0.295061 34.5977 0.419678C35.8177 0.859394 36.8122 1.58692 37.5813 2.60227C38.2945 3.54886 38.7534 4.64175 38.9581 5.88095C39.2027 7.3632 38.9836 8.7527 38.3009 10.0495C37.9411 10.7354 37.0713 11.7684 35.6914 13.1483C30.4052 18.4345 25.119 23.7206 19.8328 29.0068C19.7305 29.1076 19.6921 29.1923 19.7177 29.2611Z" fill="#D3D722"/>
<path d="M53.4447 24.5122C53.4559 24.5238 53.4693 24.533 53.4841 24.5393C53.499 24.5457 53.5149 24.5489 53.531 24.5489C53.5472 24.5489 53.5631 24.5457 53.578 24.5393C53.5928 24.533 53.6062 24.5238 53.6174 24.5122C56.2861 21.8115 58.9683 19.1181 61.6642 16.4318C62.6188 15.4804 63.2184 14.94 63.463 14.8105C64.0275 14.5099 64.6391 14.4459 65.2979 14.6186C65.8719 14.7689 66.346 15.0959 66.7201 15.5996C67.5644 16.738 67.4053 17.8893 66.2428 19.0533C63.5534 21.7412 60.8543 24.4187 58.1457 27.0857C57.3574 27.8612 56.8081 28.5512 56.4979 29.1556C56.2005 29.7376 56.0526 30.4923 56.0542 31.4197C56.0606 33.7191 56.0638 36.0192 56.0638 38.3201C56.0638 39.3258 55.9671 40.027 55.7736 40.4235C55.529 40.9208 55.1484 41.2942 54.6319 41.5436C54.1762 41.7643 53.6781 41.833 53.1377 41.7499C52.2327 41.6124 51.6035 41.1543 51.2501 40.3756C51.0614 39.9566 50.9671 39.2483 50.9671 38.2505C50.9671 35.8745 50.9671 33.4976 50.9671 31.1199C50.9687 30.2085 50.7241 29.3739 50.2332 28.616C49.9837 28.2306 49.3641 27.551 48.3744 26.5773C45.9999 24.2396 43.6342 21.8939 41.2774 19.5402C40.6186 18.883 40.2052 18.345 40.0373 17.9261C39.7335 17.1681 39.7975 16.443 40.2292 15.7507C40.5986 15.1558 41.0983 14.7753 41.7283 14.609C42.1872 14.4875 42.6533 14.4947 43.1266 14.6306C43.4751 14.7297 43.8469 14.9736 44.2418 15.3621C47.331 18.389 50.3987 21.439 53.4447 24.5122Z" fill="white"/>
<path d="M93.5899 28.153C93.5899 29.9448 93.237 31.7192 92.5512 33.3746C91.8655 35.0301 90.8605 36.5343 89.5934 37.8013C88.3264 39.0683 86.8222 40.0734 85.1667 40.7591C83.5113 41.4448 81.737 41.7978 79.9451 41.7978C76.3263 41.7978 72.8557 40.3602 70.2968 37.8013C67.7379 35.2424 66.3003 31.7718 66.3003 28.153C66.3003 24.5342 67.7379 21.0635 70.2968 18.5046C72.8557 15.9458 76.3263 14.5082 79.9451 14.5082C83.5639 14.5082 87.0345 15.9458 89.5934 18.5046C92.1523 21.0635 93.5899 24.5342 93.5899 28.153ZM88.5124 28.1554C88.5124 25.8832 87.6097 23.7041 86.0031 22.0974C84.3964 20.4907 82.2173 19.5881 79.9451 19.5881C77.6729 19.5881 75.4938 20.4907 73.8871 22.0974C72.2804 23.7041 71.3778 25.8832 71.3778 28.1554C71.3778 29.2804 71.5994 30.3945 72.03 31.4339C72.4605 32.4734 73.0916 33.4178 73.8871 34.2134C75.4938 35.82 77.6729 36.7226 79.9451 36.7226C81.0702 36.7226 82.1842 36.501 83.2236 36.0705C84.2631 35.64 85.2075 35.0089 86.0031 34.2134C86.7986 33.4178 87.4297 32.4734 87.8602 31.4339C88.2908 30.3945 88.5124 29.2804 88.5124 28.1554Z" fill="white"/>
<path d="M97.003 15.6355C97.7529 14.5961 98.7171 14.2611 99.8956 14.6305C100.575 14.8432 101.064 15.2549 101.363 15.8657C101.544 16.2383 101.634 16.8291 101.634 17.6382C101.634 21.1527 101.634 24.6672 101.634 28.1818C101.634 29.7695 102.095 31.2734 103.016 32.6932C104.674 35.2452 106.977 36.5947 109.923 36.7418C111.596 36.825 113.221 36.3549 114.797 35.3315C116.644 34.1323 117.859 32.5365 118.443 30.5442C118.67 29.7671 118.783 28.5799 118.783 26.9825C118.783 23.7046 118.783 20.4268 118.783 17.1489C118.783 16.2071 119.117 15.5003 119.784 15.0286C120.385 14.6033 121.071 14.453 121.844 14.5777C122.635 14.7057 123.207 15.131 123.559 15.8537C123.762 16.2694 123.865 16.9202 123.868 17.8061C123.879 20.5243 123.884 23.2433 123.882 25.9632C123.881 28.2161 123.79 29.8087 123.609 30.7409C123.198 32.8563 122.34 34.7639 121.036 36.4636C120.055 37.7412 118.883 38.8165 117.517 39.6895C115.125 41.2229 112.469 41.9241 109.549 41.793C106.51 41.6571 103.767 40.5626 101.32 38.5095C99.128 36.6707 97.6834 34.3426 96.9862 31.5252C96.7288 30.4859 96.5873 28.9645 96.5617 26.9609C96.5249 24.0588 96.5161 21.1567 96.5353 18.2546C96.5353 18.2402 96.5257 17.9835 96.5065 17.4847C96.4794 16.7459 96.6449 16.1295 97.003 15.6355Z" fill="white"/>
<path d="M12.9517 22.6749C15.1279 24.7936 17.2713 26.9442 19.3819 29.1268C19.4763 29.1364 19.5146 29.2011 19.497 29.321C16.8971 31.8762 15.3997 33.42 15.0047 33.9525C13.8183 35.5562 13.0772 37.3503 12.7814 39.3346C12.7638 39.1875 12.7382 39.0412 12.7046 38.8957C12.6694 38.7326 12.6519 38.5847 12.6519 38.452C12.6519 34.8079 12.6519 31.1646 12.6519 27.5222C12.6519 25.733 12.7518 24.1172 12.9517 22.6749Z" fill="#38A3C5"/>
<path d="M19.7177 29.2611C21.5118 31.0935 22.6095 32.1976 23.0108 32.5733C24.4723 33.9436 25.4564 35.5178 25.9633 37.2959C26.2623 38.348 26.4406 39.4785 26.4982 40.6873C26.5701 42.1823 26.5565 43.3184 26.4574 44.0955C26.2799 45.4866 25.7459 46.7002 24.8552 47.7363C24.0078 48.7229 22.9501 49.4249 21.6821 49.8422C20.275 50.3059 18.8767 50.3083 17.4872 49.8494C16.0113 49.3617 14.8409 48.5182 13.9758 47.319C13.0948 46.099 12.6535 44.6367 12.6519 42.9322C12.6503 41.418 12.6935 40.2188 12.7814 39.3346C13.0772 37.3502 13.8183 35.5562 15.0048 33.9524C15.3997 33.42 16.8972 31.8762 19.4971 29.321C19.5594 29.2683 19.633 29.2483 19.7177 29.2611Z" fill="#DF9F01"/>
<path d="M68.6269 46.2854C69.4376 45.7241 70.3434 45.7537 71.3443 46.3741C71.5874 46.5244 71.5634 46.6883 71.2724 46.8658C71.2408 46.886 71.2041 46.8969 71.1664 46.8974C71.1287 46.8978 71.0914 46.8877 71.0589 46.8682C70.5057 46.5388 69.9804 46.4357 69.4832 46.5588C69.0003 46.6771 68.6549 46.9617 68.447 47.4126C68.2967 47.7404 68.2695 48.0866 68.3655 48.4512C68.455 48.7821 68.6301 49.0588 68.8907 49.281C69.3592 49.6792 69.9261 49.7599 70.5912 49.5233C70.6778 49.4925 70.7529 49.4314 70.8065 49.3481C70.8602 49.2649 70.8897 49.1636 70.891 49.058L70.8982 48.1921C70.899 48.1581 70.9127 48.1247 70.9374 48.0966C70.962 48.0685 70.9962 48.0474 71.0349 48.0362C71.4683 47.9115 71.6346 48.1106 71.5338 48.6334C71.5002 48.8045 71.5034 48.9756 71.5434 49.1467C71.6314 49.5305 71.4946 49.8055 71.1333 49.9718C70.5177 50.2548 69.9165 50.3203 69.3296 50.1684C68.7412 50.0165 68.2831 49.6896 67.9553 49.1875C67.6275 48.6822 67.55 48.1314 67.7227 47.5349C67.873 47.0153 68.1744 46.5987 68.6269 46.2854Z" fill="white" fill-opacity="0.997"/>
<path d="M101.224 46.3405C102.072 45.6913 103 45.7065 104.009 46.3861C104.042 46.4086 104.069 46.438 104.087 46.4714C104.105 46.5047 104.113 46.5406 104.11 46.5755C104.094 46.7386 104.003 46.8418 103.836 46.8849C103.804 46.8932 103.768 46.8929 103.731 46.8842C103.694 46.8755 103.657 46.8586 103.623 46.8346C102.841 46.2877 102.113 46.3213 101.44 46.9353C101.133 47.2135 100.98 47.5701 100.98 48.005C100.978 48.376 101.096 48.7182 101.332 49.0316C101.806 49.6568 102.464 49.8015 103.309 49.4657C103.342 49.4529 103.445 49.3865 103.616 49.2666C103.766 49.1627 103.904 49.1851 104.031 49.3338C104.063 49.3726 104.086 49.4182 104.099 49.4672C104.112 49.5162 104.114 49.5675 104.104 49.6172C104.095 49.667 104.075 49.714 104.045 49.755C104.015 49.796 103.977 49.8299 103.932 49.8542C103.205 50.2556 102.512 50.3451 101.853 50.1229C101.204 49.9038 100.745 49.4913 100.476 48.8853C100.273 48.4264 100.255 47.9451 100.423 47.4414C100.569 47.0049 100.836 46.6379 101.224 46.3405Z" fill="white" fill-opacity="0.997"/>
<path d="M119.242 48.1444C119.232 48.4314 119.164 48.7137 119.04 48.9749C118.916 49.2361 118.74 49.4713 118.522 49.6669C118.304 49.8625 118.047 50.0148 117.768 50.115C117.488 50.2152 117.19 50.2614 116.891 50.251C116.593 50.2406 116.299 50.1737 116.027 50.0542C115.754 49.9347 115.509 49.7649 115.305 49.5545C115.101 49.3442 114.942 49.0973 114.837 48.8281C114.732 48.5589 114.683 48.2726 114.693 47.9855C114.713 47.4057 114.972 46.8581 115.413 46.463C115.854 46.0679 116.441 45.8578 117.044 45.8789C117.647 45.9 118.218 46.1505 118.63 46.5753C119.042 47.0002 119.263 47.5646 119.242 48.1444ZM118.551 48.0673C118.551 47.6462 118.383 47.2424 118.086 46.9446C117.788 46.6468 117.384 46.4796 116.963 46.4796C116.542 46.4796 116.138 46.6468 115.84 46.9446C115.542 47.2424 115.375 47.6462 115.375 48.0673C115.375 48.4884 115.542 48.8923 115.84 49.1901C116.138 49.4878 116.542 49.6551 116.963 49.6551C117.384 49.6551 117.788 49.4878 118.086 49.1901C118.383 48.8923 118.551 48.4884 118.551 48.0673Z" fill="white" fill-opacity="0.997"/>
<path d="M54.1402 47.77C54.1048 47.8149 54.0879 47.8717 54.0928 47.9287C54.0977 47.9857 54.124 48.0387 54.1666 48.077C54.779 48.6254 54.8837 49.1451 54.4808 49.636C54.2505 49.919 53.8852 50.0869 53.3847 50.1396C52.7195 50.21 51.9928 50.2196 51.2045 50.1684C51.1398 50.1636 51.0794 50.1347 51.0354 50.0875C50.9913 50.0403 50.9669 49.9784 50.967 49.9142V46.1846C50.9672 46.1317 50.9866 46.0807 51.0216 46.0413C51.0565 46.002 51.1045 45.977 51.1565 45.9711C52.0056 45.872 52.7659 45.896 53.4374 46.0431C53.8676 46.1374 54.1642 46.3077 54.3273 46.5539C54.5591 46.9073 54.4968 47.3127 54.1402 47.77ZM53.1928 46.542C52.7211 46.4252 52.243 46.4172 51.7585 46.518C51.7233 46.5256 51.6918 46.5442 51.6691 46.5708C51.6464 46.5974 51.634 46.6304 51.6338 46.6643L51.6362 47.5229C51.636 47.579 51.6572 47.6333 51.6957 47.6754C51.7343 47.7174 51.7874 47.7443 51.8449 47.7508C52.4173 47.8179 52.901 47.7939 53.2959 47.6788C53.475 47.6261 53.6085 47.5349 53.6965 47.4054C53.8228 47.2183 53.8308 47.0384 53.7205 46.8657C53.6261 46.7138 53.4502 46.6059 53.1928 46.542ZM53.9224 48.7146C53.9225 48.6657 53.913 48.6174 53.8944 48.5723C53.8758 48.5271 53.8484 48.4861 53.814 48.4515C53.7795 48.4169 53.7386 48.3895 53.6935 48.3707C53.6484 48.3519 53.6001 48.3422 53.5513 48.3422L51.9731 48.3394C51.9243 48.3393 51.8759 48.3489 51.8308 48.3675C51.7857 48.3861 51.7446 48.4134 51.7101 48.4479C51.6755 48.4823 51.648 48.5232 51.6293 48.5683C51.6105 48.6134 51.6008 48.6617 51.6007 48.7105L51.5998 49.267C51.5997 49.3158 51.6092 49.3641 51.6278 49.4093C51.6464 49.4544 51.6737 49.4954 51.7082 49.53C51.7426 49.5646 51.7836 49.5921 51.8286 49.6108C51.8737 49.6296 51.922 49.6393 51.9709 49.6394L53.549 49.6421C53.6476 49.6423 53.7423 49.6033 53.8121 49.5337C53.8819 49.4641 53.9213 49.3696 53.9215 49.271L53.9224 48.7146Z" fill="white"/>
<path d="M56.0783 45.9255H55.7521C55.6594 45.9255 55.5842 46.0007 55.5842 46.0934V50.0173C55.5842 50.11 55.6594 50.1852 55.7521 50.1852H56.0783C56.171 50.1852 56.2462 50.11 56.2462 50.0173V46.0934C56.2462 46.0007 56.171 45.9255 56.0783 45.9255Z" fill="white"/>
<path d="M58.2992 49.576L60.2467 49.6C60.2853 49.6006 60.3225 49.612 60.353 49.6326C60.3835 49.6532 60.4059 49.682 60.417 49.7151C60.457 49.8318 60.4562 49.9486 60.4146 50.0653C60.4034 50.0981 60.381 50.1266 60.3504 50.1469C60.3199 50.1671 60.2828 50.178 60.2443 50.178L57.6684 50.1492C57.6361 50.1492 57.6051 50.1359 57.5818 50.1122C57.5586 50.0885 57.5449 50.0562 57.5436 50.0221C57.4973 48.898 57.4829 47.774 57.5005 46.6499C57.5005 46.6339 57.4925 46.5156 57.4765 46.2949C57.4509 45.9607 57.6324 45.8376 58.0209 45.9256C58.061 45.9343 58.0969 45.9567 58.1226 45.989C58.1484 46.0212 58.1624 46.0615 58.1624 46.103L58.1768 49.4561C58.1769 49.4875 58.1897 49.5176 58.2125 49.54C58.2354 49.5625 58.2665 49.5754 58.2992 49.576Z" fill="white" fill-opacity="0.997"/>
<path d="M61.6667 45.928H61.3165C61.2304 45.928 61.1606 45.9978 61.1606 46.0839V50.0317C61.1606 50.1178 61.2304 50.1876 61.3165 50.1876H61.6667C61.7528 50.1876 61.8226 50.1178 61.8226 50.0317V46.0839C61.8226 45.9978 61.7528 45.928 61.6667 45.928Z" fill="white" fill-opacity="0.997"/>
<path d="M63.7484 47.5782L63.7412 49.9598C63.7405 50.0136 63.7221 50.0655 63.689 50.1069C63.6559 50.1483 63.61 50.1768 63.559 50.1877C63.2008 50.266 63.0337 50.1533 63.0577 49.8495C63.0721 49.6704 63.0793 49.5769 63.0793 49.5689C63.0729 48.4208 63.0769 47.2728 63.0913 46.1247C63.0921 46.0864 63.1035 46.0497 63.1241 46.0193C63.1446 45.9888 63.1733 45.9662 63.2064 45.9544C63.4286 45.8777 63.6261 45.9496 63.7988 46.1703C64.5007 47.0657 65.2035 47.9363 65.907 48.7822C66.0206 48.9181 66.0773 48.8973 66.0773 48.7198V46.0935C66.0775 46.0582 66.0894 46.024 66.1112 45.9966C66.133 45.9691 66.1633 45.95 66.1973 45.9424C66.597 45.8561 66.7833 45.9704 66.7561 46.2854C66.7433 46.4373 66.7369 46.5204 66.7369 46.5348C66.7369 47.6125 66.7409 48.6902 66.7489 49.7679C66.7505 50.1101 66.6234 50.2516 66.3675 50.1925C66.246 50.1653 66.1245 50.0813 66.003 49.9406C65.325 49.1587 64.6638 48.3417 64.0195 47.4894C63.8404 47.2528 63.75 47.2823 63.7484 47.5782Z" fill="white" fill-opacity="0.997"/>
<path d="M75.4552 49.9718C74.9339 50.3108 74.3223 50.3444 73.6204 50.0726C73.1695 49.8967 72.8737 49.5753 72.733 49.1084C72.5459 48.4912 72.5171 47.4862 72.6466 46.0935C72.6503 46.0569 72.6644 46.0224 72.6871 45.9946C72.7098 45.9667 72.74 45.9469 72.7737 45.9376C73.1591 45.8273 73.3334 45.9712 73.2966 46.3694C73.2774 46.5724 73.2678 46.6812 73.2678 46.6956C73.2502 47.4007 73.2718 48.1066 73.3326 48.8134C73.3757 49.3155 73.6484 49.5897 74.1504 49.6361C75.1594 49.7288 75.6447 49.2531 75.6063 48.209C75.5807 47.5086 75.5983 46.8091 75.6591 46.1103C75.6625 46.0737 75.6765 46.039 75.6992 46.0108C75.7218 45.9825 75.7521 45.9621 75.7862 45.952C76.1651 45.8481 76.341 45.988 76.3138 46.3718C76.2963 46.6516 76.2907 46.8379 76.2971 46.9306C76.3418 47.559 76.3003 48.1762 76.1723 48.7822C76.0556 49.3402 75.8166 49.7368 75.4552 49.9718Z" fill="white" fill-opacity="0.997"/>
<path d="M79.7462 49.1731C79.4424 49.1635 79.0578 49.1611 78.5925 49.1659C78.2248 49.1691 78.0369 49.1715 78.0289 49.1731C77.8514 49.2338 77.7315 49.4185 77.6691 49.7271C77.6163 49.9941 77.4588 50.1604 77.1966 50.226C76.8368 50.3171 76.7337 50.19 76.8872 49.8446C77.4453 48.599 78.0073 47.3558 78.5733 46.115C78.5908 46.0771 78.6138 46.0436 78.641 46.0164C78.6681 45.9892 78.699 45.9689 78.7316 45.9567C78.8899 45.8976 79.0474 45.8976 79.2041 45.9567C79.2382 45.9688 79.2701 45.9889 79.2977 46.0157C79.3253 46.0425 79.3482 46.0755 79.3648 46.1126L81.1421 50.0317C81.1481 50.0456 81.151 50.0607 81.1505 50.0758C81.15 50.091 81.1462 50.1058 81.1393 50.1193C81.1325 50.1329 81.1227 50.1447 81.1107 50.154C81.0988 50.1633 81.0849 50.1699 81.0701 50.1732C80.6944 50.2595 80.4537 50.0877 80.3482 49.6575C80.2698 49.3441 80.0692 49.1826 79.7462 49.1731ZM78.8563 46.9449L78.1944 48.4967C78.1879 48.511 78.1852 48.5267 78.1864 48.5424C78.1877 48.5581 78.1928 48.5732 78.2014 48.5863C78.21 48.5994 78.2218 48.6102 78.2357 48.6176C78.2495 48.625 78.265 48.6288 78.2807 48.6286L79.6718 48.6166C79.6862 48.6168 79.7005 48.6135 79.7133 48.6069C79.7261 48.6004 79.7371 48.5908 79.7452 48.5791C79.7533 48.5674 79.7583 48.554 79.7597 48.54C79.7612 48.526 79.759 48.512 79.7534 48.4991L79.077 46.9401C79.0035 46.7706 78.9299 46.7722 78.8563 46.9449Z" fill="white" fill-opacity="0.997"/>
<path d="M84.7469 49.7343C84.9004 49.9901 84.8125 50.1253 84.4831 50.1396C83.6852 50.1716 82.8585 50.1876 82.0031 50.1876C81.9617 50.1876 81.9221 50.1714 81.8928 50.1427C81.8636 50.1139 81.8472 50.0748 81.8472 50.0341L81.8616 46.1246C81.8616 46.0864 81.8719 46.0495 81.8911 46.0187C81.9104 45.9879 81.9377 45.9646 81.9695 45.9519C82.107 45.8992 82.2453 45.9 82.3844 45.9543C82.4154 45.9656 82.4422 45.988 82.4611 46.0185C82.48 46.049 82.4901 46.0861 82.49 46.1246L82.5475 49.4225C82.5481 49.455 82.5611 49.486 82.5839 49.5092C82.6066 49.5324 82.6374 49.546 82.6698 49.5472L84.5598 49.6288C84.5994 49.6303 84.6373 49.6408 84.6701 49.6593C84.7028 49.6777 84.7292 49.7036 84.7469 49.7343Z" fill="white" fill-opacity="0.997"/>
<path d="M87.7978 49.5736L89.9276 49.6024C89.9665 49.6023 90.0039 49.6126 90.0352 49.6318C90.0664 49.6511 90.0899 49.6784 90.1027 49.7103C90.1507 49.8287 90.1507 49.9478 90.1027 50.0677C90.0893 50.1003 90.0654 50.1282 90.0343 50.1479C90.0031 50.1675 89.966 50.178 89.9276 50.1781L87.167 50.1493C87.1346 50.1493 87.1034 50.1359 87.0805 50.112C87.0576 50.0882 87.0447 50.0559 87.0447 50.0221L87.0159 46.0647C87.0156 46.0488 87.0185 46.0329 87.0245 46.0181C87.0305 46.0033 87.0395 45.9898 87.0509 45.9784C87.0623 45.967 87.0758 45.9579 87.0908 45.9517C87.1058 45.9456 87.1219 45.9424 87.1382 45.9424H89.8077C89.8466 45.9425 89.8841 45.9531 89.9153 45.9727C89.9465 45.9924 89.97 46.0203 89.9828 46.0527C90.0308 46.171 90.0308 46.2902 89.9828 46.4101C89.97 46.4412 89.9466 46.4679 89.9154 46.4867C89.8842 46.5055 89.8467 46.5156 89.8077 46.5156L87.7978 46.5444C87.7647 46.5444 87.733 46.557 87.7096 46.5795C87.6862 46.602 87.6731 46.6325 87.6731 46.6643L87.6659 47.5757C87.6656 47.5961 87.6695 47.6163 87.6776 47.6352C87.6856 47.6541 87.6976 47.6713 87.7128 47.6858C87.728 47.7003 87.746 47.7118 87.766 47.7197C87.7859 47.7276 87.8073 47.7316 87.829 47.7316L89.5678 47.7412C89.6047 47.7412 89.6406 47.7519 89.6709 47.772C89.7013 47.7921 89.7247 47.8206 89.7381 47.8539C89.8868 48.2233 89.7341 48.3952 89.28 48.3696C88.8019 48.3424 88.3159 48.3288 87.8218 48.3288C87.8014 48.3288 87.7813 48.3328 87.7625 48.3404C87.7437 48.348 87.7267 48.3592 87.7124 48.3733C87.6981 48.3873 87.6868 48.404 87.6793 48.4223C87.6717 48.4406 87.668 48.4602 87.6683 48.4799L87.6731 49.4537C87.6731 49.4855 87.6862 49.516 87.7096 49.5385C87.733 49.561 87.7647 49.5736 87.7978 49.5736Z" fill="white" fill-opacity="0.996"/>
<path d="M94.7533 49.3626C94.4751 49.7687 94.049 50.0118 93.475 50.0917C92.821 50.1813 92.0926 50.2109 91.29 50.1805C91.2338 50.178 91.1807 50.1539 91.1418 50.1133C91.1029 50.0726 91.0812 50.0185 91.0813 49.9622V46.0551C91.0813 46.0388 91.0845 46.0225 91.0908 46.0074C91.0971 45.9923 91.1062 45.9785 91.1178 45.9669C91.1294 45.9554 91.1432 45.9462 91.1583 45.9399C91.1734 45.9336 91.1896 45.9304 91.206 45.9304C91.8024 45.9304 92.3605 45.9352 92.8801 45.9448C93.3023 45.9528 93.694 46.0439 94.0554 46.2182C94.4167 46.3925 94.7014 46.6556 94.9092 47.0073C95.3585 47.7716 95.3066 48.5567 94.7533 49.3626ZM94.4391 48.408C94.6774 47.471 94.2728 46.8498 93.2255 46.5444C92.9985 46.4789 92.5587 46.4845 91.9064 46.5612C91.8714 46.5653 91.8391 46.5813 91.8157 46.606C91.7922 46.6308 91.7793 46.6626 91.7792 46.6955L91.7457 49.3842C91.7453 49.4108 91.7506 49.4373 91.761 49.462C91.7715 49.4867 91.787 49.5092 91.8066 49.5282C91.8263 49.5471 91.8496 49.5622 91.8754 49.5725C91.9012 49.5827 91.9288 49.588 91.9567 49.5881C92.2925 49.5881 92.6203 49.5905 92.9401 49.5953C93.3414 49.6017 93.6772 49.4913 93.9475 49.2643C94.1793 49.0692 94.3432 48.7838 94.4391 48.408Z" fill="white" fill-opacity="0.996"/>
<path d="M99.1303 49.6647C98.5771 50.2483 97.8727 50.4026 97.0173 50.1276C96.3281 49.9069 95.9756 49.3673 95.9596 48.5086C95.9452 47.7491 95.938 46.944 95.938 46.0934C95.9381 46.0581 95.9501 46.0239 95.9718 45.9965C95.9936 45.969 96.024 45.9499 96.0579 45.9423C96.4577 45.8559 96.6439 45.9703 96.6167 46.2853C96.604 46.4372 96.5976 46.5195 96.5976 46.5323C96.5976 46.9912 96.5976 47.4501 96.5976 47.909C96.5976 48.312 96.6455 48.6549 96.7415 48.938C96.855 49.2721 97.0876 49.4928 97.4394 49.5999C97.9127 49.7422 98.2989 49.6335 98.5979 49.2737C98.7818 49.0515 98.8857 48.7141 98.9097 48.2616C98.9465 47.5644 98.956 46.8665 98.9385 46.1677C98.9377 46.1272 98.9457 46.0882 98.9617 46.0542C98.9776 46.0202 99.001 45.9924 99.0296 45.9735C99.1655 45.8839 99.2998 45.8879 99.4325 45.9855C99.4601 46.0064 99.4827 46.0353 99.4985 46.0698C99.5143 46.1043 99.5229 46.1435 99.5237 46.1845L99.5333 48.6717C99.5349 49.0507 99.4006 49.3817 99.1303 49.6647Z" fill="white" fill-opacity="0.997"/>
<path d="M106.674 45.928C106.786 45.8928 106.898 45.9032 107.012 45.9591C107.095 46.0007 107.164 46.0807 107.218 46.199C107.723 47.2943 108.224 48.3912 108.719 49.4897C108.724 49.4993 108.771 49.5936 108.861 49.7727C109.072 50.19 108.925 50.3163 108.42 50.1516C108.386 50.141 108.354 50.1222 108.326 50.0966C108.298 50.071 108.275 50.039 108.259 50.0029L107.94 49.3194C107.924 49.2856 107.9 49.2569 107.869 49.2365C107.838 49.2162 107.802 49.205 107.765 49.2042L106.038 49.1659C105.733 49.1595 105.53 49.3178 105.429 49.6408C105.293 50.0789 105.044 50.2556 104.683 50.1708C104.667 50.1672 104.652 50.1602 104.64 50.1502C104.627 50.1403 104.616 50.1277 104.609 50.1132C104.602 50.0988 104.598 50.083 104.597 50.0668C104.597 50.0507 104.6 50.0346 104.606 50.0197C105.159 48.7325 105.749 47.4718 106.374 46.2374C106.46 46.0663 106.56 45.9631 106.674 45.928ZM106.698 46.9161L106.048 48.4535C106.042 48.4684 106.039 48.4844 106.041 48.5003C106.042 48.5161 106.047 48.5313 106.055 48.5446C106.064 48.5578 106.075 48.5687 106.088 48.5762C106.101 48.5837 106.116 48.5877 106.132 48.5878L107.467 48.5998C107.482 48.6 107.496 48.5963 107.508 48.5891C107.521 48.5819 107.531 48.5714 107.539 48.5585C107.547 48.5457 107.551 48.5309 107.552 48.5155C107.553 48.5001 107.55 48.4846 107.544 48.4703L106.889 46.9185C106.825 46.7666 106.762 46.7658 106.698 46.9161Z" fill="white" fill-opacity="0.997"/>
<path d="M110.94 46.7266C110.926 47.678 110.922 48.6294 110.928 49.5808C110.928 49.5904 110.935 49.6743 110.948 49.8326C110.975 50.1476 110.789 50.2619 110.389 50.1756C110.355 50.168 110.324 50.1489 110.303 50.1214C110.281 50.094 110.269 50.0598 110.269 50.0245V46.7794C110.269 46.7132 110.243 46.6498 110.196 46.603C110.149 46.5562 110.086 46.53 110.019 46.53C109.706 46.53 109.471 46.5419 109.314 46.5659C108.902 46.6315 108.736 46.4788 108.818 46.1078C108.829 46.0575 108.857 46.0124 108.897 45.9801C108.937 45.9478 108.987 45.9303 109.038 45.9303C109.991 45.9303 110.899 45.9303 111.761 45.9303C111.781 45.9303 111.865 45.9255 112.01 45.9159C112.36 45.8952 112.47 46.0583 112.339 46.4052C112.328 46.4338 112.307 46.459 112.277 46.4778C112.248 46.4965 112.212 46.508 112.173 46.5108L111.063 46.5851C111.03 46.587 111 46.6026 110.977 46.6288C110.954 46.655 110.941 46.6899 110.94 46.7266Z" fill="white" fill-opacity="0.997"/>
<path d="M113.655 45.9304H113.3C113.216 45.9304 113.147 45.9991 113.147 46.0839V50.0318C113.147 50.1165 113.216 50.1853 113.3 50.1853H113.655C113.74 50.1853 113.809 50.1165 113.809 50.0318V46.0839C113.809 45.9991 113.74 45.9304 113.655 45.9304Z" fill="white" fill-opacity="0.996"/>
<path d="M120.837 47.4365L120.808 49.9933C120.808 50.0318 120.797 50.0689 120.778 50.1001C120.759 50.1312 120.732 50.155 120.7 50.1684C120.546 50.2307 120.402 50.2172 120.268 50.1276C120.239 50.1084 120.216 50.0803 120.199 50.046C120.183 50.0117 120.175 49.9721 120.175 49.9309V46.187C120.175 46.144 120.183 46.103 120.198 46.0675C120.214 46.032 120.236 46.0031 120.263 45.9831C120.364 45.9095 120.477 45.8935 120.601 45.9351C120.681 45.9607 120.764 46.0263 120.849 46.1318C121.576 47.04 122.28 47.9082 122.962 48.7365C123.094 48.8996 123.161 48.8764 123.161 48.667V46.0934C123.161 46.0581 123.173 46.0239 123.194 45.9965C123.216 45.969 123.247 45.9499 123.281 45.9423C123.68 45.856 123.867 45.9703 123.839 46.2853C123.827 46.4372 123.82 46.5203 123.82 46.5347C123.82 47.6124 123.824 48.6901 123.832 49.7678C123.834 50.11 123.707 50.2515 123.451 50.1924C123.329 50.1652 123.208 50.0812 123.086 49.9405C122.397 49.1394 121.738 48.3144 121.108 47.4653C121.084 47.4329 121.056 47.4066 121.027 47.3893C120.997 47.372 120.968 47.3642 120.942 47.367L120.889 47.3718C120.875 47.373 120.861 47.3804 120.851 47.3924C120.842 47.4044 120.836 47.4202 120.837 47.4365Z" fill="white"/>
</g>
<defs>
<clipPath id="clip0_42_1031">
<rect width="124" height="50.3675" fill="white"/>
</clipPath>
</defs>
</svg>
